<svg width="1059" height="786" viewBox="0 0 1059 786" fill="none" xmlns="http://www.w3.org/2000/svg">
<g id="undraw_Ride_a_bicycle 1">
<path id="Vector" opacity="0.1" d="M210.73 116.43C205.25 123.08 203.14 132.43 200.78 141.22C181.78 212.06 134.96 269.04 81.64 309.74C59.06 326.98 31.57 350.1 36.51 381.01C39.17 397.61 50.84 409.83 59.51 423.35C77.7 451.66 83.6 490.14 74.93 524.03C65.07 562.59 37.51 598.57 46.04 637.56C51.3 661.56 69.16 678.64 86.33 693.32C113.117 716.207 140.757 737.647 169.25 757.64C188.35 771.04 208.67 784.08 230.93 785.78C250.53 787.28 269.73 779.83 288.34 772.48C304.6 766.05 321.27 759.36 334.4 746.48C342.97 738.07 349.8 727.22 359.32 720.34C381.68 704.18 410.4 714.42 436.04 721.34C496.54 737.58 561.29 731.65 618.86 704.6C707.17 663.1 774.48 575.95 860.86 529.19C898 509.08 938.4 496.6 972.79 470.7C992.165 455.953 1008.81 437.936 1021.99 417.46C1047.99 377.35 1062.05 326.21 1057.99 276.15C1053.93 226.09 1031.18 177.85 995.45 149.59C957.2 119.34 908.89 113.69 865.37 95.53C820.43 76.77 780.45 44.53 735.94 24.4C699.924 8.15665 660.728 0.18284 621.228 1.06361C581.728 1.94439 542.926 11.6574 507.67 29.49C459.23 53.99 410.13 111.15 356.18 115.49C317.74 118.49 240.75 80.01 210.73 116.43Z" fill="#6C63FF"/>
<g id="rock2">
<path id="Vector_2" d="M843.1 449.32C843.1 449.32 860.6 483.67 846.34 502.46C832.08 521.25 847.64 572.46 847.64 572.46" stroke="#6C63FF" stroke-miterlimit="10"/>
<path id="Vector_3" d="M848.28 438.63C848.28 445.25 843.42 450.63 843.42 450.63C843.42 450.63 838.56 445.26 838.56 438.63C838.56 432 843.42 426.63 843.42 426.63C843.42 426.63 848.28 432.01 848.28 438.63Z" fill="#6C63FF"/>
<path id="Vector_4" d="M852.17 449.32C852.17 449.32 834.67 483.67 848.93 502.46C863.19 521.25 847.63 572.46 847.63 572.46" stroke="#6C63FF" stroke-miterlimit="10"/>
<path id="Vector_5" d="M846.99 438.63C846.99 445.25 851.85 450.63 851.85 450.63C851.85 450.63 856.71 445.26 856.71 438.63C856.71 432 851.85 426.63 851.85 426.63C851.85 426.63 846.99 432.01 846.99 438.63Z" fill="#6C63FF"/>
<path id="Vector_6" opacity="0.1" d="M846.99 438.63C846.99 445.25 851.85 450.63 851.85 450.63C851.85 450.63 856.71 445.26 856.71 438.63C856.71 432 851.85 426.63 851.85 426.63C851.85 426.63 846.99 432.01 846.99 438.63Z" fill="black"/>
<path id="Vector_7" d="M859.3 449.32C859.3 449.32 876.8 483.67 862.54 502.46C848.28 521.25 863.84 572.46 863.84 572.46" stroke="#6C63FF" stroke-miterlimit="10"/>
<path id="Vector_8" d="M864.48 438.63C864.48 445.25 859.62 450.63 859.62 450.63C859.62 450.63 854.76 445.26 854.76 438.63C854.76 432 859.62 426.63 859.62 426.63C859.62 426.63 864.48 432.01 864.48 438.63Z" fill="#6C63FF"/>
<path id="Vector_9" d="M861.76 466.15C857.17 470.92 849.94 471.42 849.94 471.42C849.94 471.42 850.16 464.18 854.75 459.42C859.34 454.66 866.57 454.15 866.57 454.15C866.57 454.15 866.35 461.38 861.76 466.15Z" fill="#6C63FF"/>
<path id="Vector_10" d="M862.22 489.85C857.63 494.62 850.4 495.12 850.4 495.12C850.4 495.12 850.62 487.88 855.21 483.12C859.8 478.36 867.03 477.85 867.03 477.85C867.03 477.85 866.85 485.07 862.22 489.85Z" fill="#6C63FF"/>
<path id="Vector_11" d="M837.32 502.88C841.66 507.88 841.51 515.12 841.51 515.12C841.51 515.12 834.32 514.25 829.98 509.25C825.64 504.25 825.79 497.01 825.79 497.01C825.79 497.01 832.98 497.88 837.32 502.88Z" fill="#6C63FF"/>
<path id="Vector_12" d="M841.35 452.35C846.87 456.01 848.66 463.03 848.66 463.03C848.66 463.03 841.5 464.12 835.98 460.46C830.46 456.8 828.67 449.78 828.67 449.78C828.67 449.78 835.85 448.69 841.35 452.35Z" fill="#6C63FF"/>
<path id="Vector_13" opacity="0.1" d="M841.35 452.35C846.87 456.01 848.66 463.03 848.66 463.03C848.66 463.03 841.5 464.12 835.98 460.46C830.46 456.8 828.67 449.78 828.67 449.78C828.67 449.78 835.85 448.69 841.35 452.35Z" fill="black"/>
<path id="Vector_14" d="M868.37 449.32C868.37 449.32 850.85 483.67 865.13 502.49C879.41 521.31 863.83 572.49 863.83 572.49" stroke="#6C63FF" stroke-miterlimit="10"/>
<path id="Vector_15" d="M863.19 438.63C863.19 445.25 868.05 450.63 868.05 450.63C868.05 450.63 872.91 445.26 872.91 438.63C872.91 432 868.05 426.63 868.05 426.63C868.05 426.63 863.19 432.01 863.19 438.63Z" fill="#6C63FF"/>
<path id="Vector_16" opacity="0.1" d="M863.19 438.63C863.19 445.25 868.05 450.63 868.05 450.63C868.05 450.63 872.91 445.26 872.91 438.63C872.91 432 868.05 426.63 868.05 426.63C868.05 426.63 863.19 432.01 863.19 438.63Z" fill="black"/>
<path id="Vector_17" d="M864.59 466.66C859.94 471.38 859.59 478.66 859.59 478.66C859.59 478.66 866.82 478.25 871.47 473.53C876.12 468.81 876.47 461.53 876.47 461.53C876.47 461.53 869.23 461.94 864.59 466.66Z" fill="#6C63FF"/>
<path id="Vector_18" opacity="0.1" d="M864.59 466.66C859.94 471.38 859.59 478.66 859.59 478.66C859.59 478.66 866.82 478.25 871.47 473.53C876.12 468.81 876.47 461.53 876.47 461.53C876.47 461.53 869.23 461.94 864.59 466.66Z" fill="black"/>
<path id="Vector_19" d="M873.7 499.49C869.05 504.21 868.7 511.49 868.7 511.49C868.7 511.49 875.93 511.08 880.58 506.36C885.23 501.64 885.58 494.36 885.58 494.36C885.58 494.36 878.35 494.75 873.7 499.49Z" fill="#6C63FF"/>
<path id="Vector_20" d="M860.29 492.26C860.29 492.26 870.82 475.66 885.61 475.26" stroke="#6C63FF" stroke-miterlimit="10"/>
<path id="Vector_21" d="M852.09 482.23C852.09 482.23 841.56 465.63 826.77 465.23" stroke="#6C63FF" stroke-miterlimit="10"/>
<path id="Vector_22" d="M850.72 505.93C850.72 505.93 861.25 489.33 876.04 488.93" stroke="#6C63FF" stroke-miterlimit="10"/>
<path id="Vector_23" d="M885.13 477.9C886.638 477.9 887.86 476.678 887.86 475.17C887.86 473.662 886.638 472.44 885.13 472.44C883.622 472.44 882.4 473.662 882.4 475.17C882.4 476.678 883.622 477.9 885.13 477.9Z" fill="#6C63FF"/>
<path id="Vector_24" d="M827.03 468.1C828.538 468.1 829.76 466.878 829.76 465.37C829.76 463.862 828.538 462.64 827.03 462.64C825.522 462.64 824.3 463.862 824.3 465.37C824.3 466.878 825.522 468.1 827.03 468.1Z" fill="#6C63FF"/>
<path id="Vector_25" d="M858.47 511.4C858.47 511.4 847.94 494.8 833.15 494.4" stroke="#6C63FF" stroke-miterlimit="10"/>
<path id="Vector_26" d="M833.41 497.27C834.918 497.27 836.14 496.048 836.14 494.54C836.14 493.032 834.918 491.81 833.41 491.81C831.902 491.81 830.68 493.032 830.68 494.54C830.68 496.048 831.902 497.27 833.41 497.27Z" fill="#6C63FF"/>
<path id="Vector_27" d="M876.24 491.8C877.748 491.8 878.97 490.578 878.97 489.07C878.97 487.562 877.748 486.34 876.24 486.34C874.732 486.34 873.51 487.562 873.51 489.07C873.51 490.578 874.732 491.8 876.24 491.8Z" fill="#6C63FF"/>
<path id="Vector_28" d="M916.69 552.49C916.69 552.49 891.31 547.41 884.54 540.64C877.77 533.87 847.31 522.06 843.93 530.49C840.55 538.92 798.24 567.72 827.01 572.8C855.78 577.88 894.7 579.57 903.16 576.18C911.62 572.79 916.69 552.49 916.69 552.49Z" fill="#A8A8A8"/>
<path id="Vector_29" opacity="0.2" d="M827 569.68C855.77 574.76 894.69 576.45 903.15 573.06C909.59 570.48 914.07 558.06 915.84 552.34L916.69 552.52C916.69 552.52 911.61 572.83 903.15 576.21C894.69 579.59 855.77 577.9 827 572.83C818.7 571.36 816.32 567.92 817.22 563.57C817.93 566.4 820.85 568.59 827 569.68Z" fill="black"/>
</g>
<g id="rock1">
<path id="Vector_30" d="M68.25 589.15C68.25 589.15 76.63 600.15 64.38 616.65C52.13 633.15 42.03 647.16 46.12 657.49C46.12 657.49 64.6 626.76 79.64 626.33C94.68 625.9 84.79 607.63 68.25 589.15Z" fill="#6C63FF"/>
<path id="Vector_31" opacity="0.1" d="M68.25 589.15C68.9802 590.21 69.556 591.368 69.96 592.59C84.64 609.83 92.45 625.92 78.35 626.33C65.21 626.71 49.45 650.2 45.67 656.14C45.7947 656.598 45.9449 657.049 46.12 657.49C46.12 657.49 64.6 626.76 79.64 626.33C94.68 625.9 84.79 607.63 68.25 589.15Z" fill="black"/>
<path id="Vector_32" d="M83.85 603.11C83.85 606.97 83.42 610.11 82.85 610.11C82.28 610.11 81.85 606.98 81.85 603.11C81.85 599.24 82.39 601.11 82.92 601.11C83.45 601.11 83.85 599.26 83.85 603.11Z" fill="#FFD037"/>
<path id="Vector_33" d="M89.17 607.72C85.78 609.57 82.83 610.72 82.58 610.21C82.33 609.7 84.86 607.86 88.25 606.02C91.64 604.18 90.3 605.52 90.56 606.02C90.82 606.52 92.56 605.87 89.17 607.72Z" fill="#FFD037"/>
<path id="Vector_34" d="M23.98 589.15C23.98 589.15 15.6 600.15 27.85 616.65C40.1 633.15 50.2 647.16 46.11 657.48C46.11 657.48 27.63 626.75 12.59 626.32C-2.45002 625.89 7.43998 607.63 23.98 589.15Z" fill="#6C63FF"/>
<path id="Vector_35" opacity="0.1" d="M23.98 589.15C23.2497 590.21 22.674 591.368 22.27 592.59C7.59999 609.83 -0.220007 625.92 13.85 626.32C26.99 626.7 42.75 650.19 46.53 656.13C46.4053 656.588 46.255 657.039 46.08 657.48C46.08 657.48 27.6 626.75 12.56 626.32C-2.48001 625.89 7.43999 607.63 23.98 589.15Z" fill="black"/>
<path id="Vector_36" d="M8.40997 603.11C8.40997 606.97 8.83997 610.11 9.40997 610.11C9.97997 610.11 10.41 606.98 10.41 603.11C10.41 599.24 9.86997 601.11 9.33997 601.11C8.80997 601.11 8.40997 599.26 8.40997 603.11Z" fill="#FFD037"/>
<path id="Vector_37" d="M3.05997 607.72C6.44997 609.57 9.39998 610.72 9.64998 610.21C9.89998 609.7 7.36997 607.86 3.97997 606.02C0.589973 604.18 1.92998 605.52 1.66998 606.02C1.40998 606.52 -0.330025 605.87 3.05997 607.72Z" fill="#FFD037"/>
<path id="Vector_38" d="M11.07 656.04C11.07 656.04 34.5 655.32 41.56 650.29C48.62 645.26 77.56 639.29 79.35 647.29C81.14 655.29 114.56 687.4 88.11 687.61C61.66 687.82 26.65 683.49 19.61 679.23C12.57 674.97 11.07 656.04 11.07 656.04Z" fill="#A8A8A8"/>
<path id="Vector_39" opacity="0.2" d="M88.59 684.84C62.14 685.05 27.13 680.72 20.08 676.43C14.71 673.16 12.57 661.43 11.86 656.02H11.08C11.08 656.02 12.56 674.92 19.61 679.21C26.66 683.5 61.67 687.84 88.12 687.62C95.76 687.56 98.39 684.84 98.25 680.82C97.19 683.28 94.27 684.79 88.59 684.84Z" fill="black"/>
</g>
<path id="Vector_40" d="M388 555.303L345.293 513.159L331.947 526.683L374.654 568.827L388 555.303Z" fill="#6C63FF"/>
<path id="Vector_41" opacity="0.1" d="M388 555.303L345.293 513.159L331.947 526.683L374.654 568.827L388 555.303Z" fill="black"/>
<path id="Vector_42" d="M355.48 492.99C355.48 492.99 380.27 479.91 389.85 471.49C395.617 466.444 401.818 461.917 408.38 457.96L439.48 439.03L504.48 434.03L507.48 445.03C507.48 445.03 512.48 461.03 462.48 475.03C412.48 489.03 387.48 511.03 387.48 511.03C387.48 511.03 355.48 521.99 355.48 492.99Z" fill="#DB8B8B"/>
<path id="Vector_43" opacity="0.1" d="M390.13 508.86C388.36 510.21 387.48 510.99 387.48 510.99C387.48 510.99 355.48 521.99 355.48 492.99C355.48 492.99 357.03 492.17 359.48 490.8C361.955 494.831 365.423 498.16 369.551 500.469C373.679 502.778 378.33 503.99 383.06 503.99H386.45L390.13 508.86Z" fill="black"/>
<path id="Vector_44" opacity="0.05" d="M506.54 450.55C503.76 456.44 494.17 466.12 462.48 474.99C421.87 486.36 397.75 502.99 390.13 508.86C388.36 510.21 387.48 510.99 387.48 510.99C387.48 510.99 355.48 521.99 355.48 492.99C355.48 492.99 357.03 492.17 359.48 490.8C366.91 486.73 382.64 477.8 389.82 471.45C395.586 466.403 401.787 461.875 408.35 457.92L439.45 438.99L451.03 438.1L504.45 433.99L507.45 444.99C507.45 444.99 508.15 447.14 506.54 450.55Z" fill="black"/>
<path id="Vector_45" d="M355.98 486.49L329.48 503.99L407.08 568.99C407.08 568.99 418.48 561.99 412.48 553.99C412.48 553.99 392.48 536.99 391.48 512.99L385.48 504.99H382.09C376.358 504.991 370.767 503.211 366.089 499.897C361.412 496.583 357.88 491.898 355.98 486.49V486.49Z" fill="#ABB1D1"/>
<path id="Vector_46" opacity="0.1" d="M506.54 450.55C490.54 442.82 451.48 441.99 451.48 441.99L451.06 438.1L504.48 433.99L507.48 444.99C507.48 444.99 508.15 447.14 506.54 450.55Z" fill="black"/>
<path id="Vector_47" d="M451.48 439.99C451.48 439.99 498.48 440.99 510.48 450.99L504.48 329.99H439.48L451.48 439.99Z" fill="#ABB1D1"/>
<path id="Vector_48" opacity="0.05" d="M451.48 439.49C451.48 439.49 498.48 440.49 510.48 450.49L504.48 329.49H439.48L451.48 439.49Z" fill="black"/>
<g id="wheel--front">
<path id="Vector_49" d="M682.42 718.39L676.16 620.49L676.03 620.28L669.71 622.48L640.62 707.29L594.37 674.49L668.06 621.08L668.13 620.87L668.55 620.72L673.3 617.27L596.06 573.96L577.13 594.76L580.13 614.26L668.93 615.84V617.84L578.45 616.22L575.05 594.11L600.94 565.66L639.66 520.49L640.35 522.36L648.55 513.36L679.09 518.83V517.62L681.09 517.68V519.19L726.45 527.31L684.12 611.96L677.95 616.43V616.93V617.49L775.76 583.41L764.15 674.62L681.15 621.75L678.23 620.11L727.17 699L682.42 718.39ZM678.42 624.05L684.27 715.43L724.32 698.05L678.42 624.05ZM597.85 674.49L639.64 704.12L666.98 624.38L597.85 674.49ZM680.17 618.83L682.26 620L762.61 671.2L773.41 586.33L680.17 618.83ZM673.07 611.63L675.58 615.68L676.02 615.36L679.02 520.83L649.28 515.49L641.12 524.49L673.07 611.63ZM597.68 572.58L672.52 614.58L671.22 612.45L639.64 526.18L602.44 567.06L597.68 572.58ZM681.05 521.19L678.05 613.88L682.57 610.6L723.48 528.78L681.05 521.19Z" fill="#535461"/>
<path id="Vector_50" d="M677.33 499.61C666.717 499.598 656.15 501.024 645.92 503.85C640.644 505.305 635.477 507.133 630.46 509.32C603.73 520.907 582.247 541.997 570.167 568.508C558.087 595.019 556.269 625.069 565.065 652.843C573.86 680.618 592.644 704.143 617.782 718.869C642.921 733.594 672.627 738.473 701.155 732.562C729.682 726.65 755.004 710.369 772.221 686.867C789.438 663.365 797.327 634.312 794.362 605.33C791.396 576.348 777.787 549.495 756.168 529.966C734.548 510.438 706.454 499.622 677.32 499.61H677.33ZM676.93 705.7C656.649 705.692 636.981 698.746 621.192 686.017C605.404 673.288 594.445 655.541 590.135 635.723C585.825 615.905 588.424 595.209 597.501 577.073C606.577 558.936 621.584 544.45 640.03 536.02C644.722 533.872 649.594 532.142 654.59 530.85C666.802 527.68 679.549 527.147 691.984 529.287C704.418 531.427 716.253 536.191 726.703 543.261C737.153 550.332 745.977 559.547 752.588 570.293C759.199 581.039 763.446 593.069 765.046 605.585C766.646 618.1 765.562 630.812 761.866 642.875C758.17 654.939 751.948 666.077 743.613 675.548C735.277 685.02 725.02 692.608 713.524 697.806C702.028 703.005 689.557 705.696 676.94 705.7H676.93Z" fill="#535461"/>
</g>
<path id="Vector_51" d="M489.24 365.95C489.24 365.95 606.89 361.95 609.29 377.16C611.69 392.37 491.64 385.96 491.64 385.96C491.64 385.96 482.04 376.35 489.24 365.95Z" fill="#535461"/>
<path id="Vector_52" opacity="0.05" d="M489.24 365.95C489.24 365.95 606.89 361.95 609.29 377.16C611.69 392.37 491.64 385.96 491.64 385.96C491.64 385.96 482.04 376.35 489.24 365.95Z" fill="black"/>
<path id="Vector_53" d="M394 426.78H373.19V607.66H394V426.78Z" fill="#6C63FF"/>
<path id="Vector_54" opacity="0.1" d="M394 426.77V440.7C387.08 441.6 380 442.17 373.19 442.39V426.77H394Z" fill="black"/>
<path id="Vector_55" d="M392.44 411.78C389.52 411.554 386.616 411.164 383.74 410.61C372.46 408.45 344.02 403.92 336.37 411.61C326.77 421.21 329.97 438.02 355.58 440.42C381.19 442.82 425.21 436.42 434.02 426.81C434.02 426.77 418.09 413.75 392.44 411.78Z" fill="#535461"/>
<path id="Vector_56" d="M388.4 476.4L606.9 408.37L614.1 425.18L390 502.01L388.4 476.4Z" fill="#6C63FF"/>
<path id="Vector_57" d="M453.23 583.65L610.9 428.38L619.7 441.18L469.23 598.05L453.23 583.65Z" fill="#6C63FF"/>
<path id="Vector_58" opacity="0.1" d="M654.58 530.85C649.584 532.142 644.712 533.872 640.02 536.02L630.46 509.31C635.477 507.123 640.644 505.295 645.92 503.84L654.58 530.85Z" fill="black"/>
<path id="Vector_59" d="M681.33 609.26L670.13 615.66L591.99 397.33L588.49 387.56L606.9 377.15L611.51 391.53L681.33 609.26Z" fill="#6C63FF"/>
<path id="Vector_60" opacity="0.1" d="M611.51 391.53L591.99 397.33L588.49 387.56L606.9 377.15L611.51 391.53Z" fill="black"/>
<path id="Vector_61" d="M492.44 408.37L602.09 370.75C602.09 370.75 621.3 373.15 614.09 389.16L503.65 421.97C503.65 421.97 486.85 423.57 492.44 408.37Z" fill="#535461"/>
<g id="wheel--back">
<path id="Vector_62" d="M256.23 717.99L249.96 620.05L249.83 619.84L243.51 622.04L214.43 706.89L168.18 674.1L241.85 620.69L241.92 620.48L242.34 620.33L247.09 616.88L169.85 573.57L150.93 594.37L153.93 613.87L242.75 615.49V617.49L152.27 615.87L148.85 593.73L174.75 565.27L213.5 520.07L214.19 521.94L222.39 512.94L252.85 518.4V517.19L254.85 517.25V518.76L300.21 526.88L257.92 611.49L251.75 615.96V616.46V617.02L349.55 582.94L337.94 674.15L254.94 621.28L252.02 619.64L300.96 698.52L256.23 717.99ZM252.23 623.65L258.08 715.03L298.13 697.65L252.23 623.65ZM171.65 674.08L213.44 703.71L240.78 623.97L171.65 674.08ZM253.97 618.42L256.06 619.59L336.41 670.79L347.21 585.92L253.97 618.42ZM246.87 611.22L249.38 615.27L249.82 614.95L252.82 520.42L223.08 515.1L214.92 524.1L246.87 611.22ZM171.45 572.16L246.29 614.16L244.99 612.03L213.41 525.76L176.22 566.63L171.45 572.16ZM254.85 520.77L251.85 613.49L256.37 610.21L297.28 528.39L254.85 520.77Z" fill="#535461"/>
<path id="Vector_63" d="M365.92 590.95C361.91 573.131 353.79 556.495 342.21 542.37C337.911 537.121 333.171 532.25 328.04 527.81C308.314 510.779 283.491 500.779 257.467 499.381C231.443 497.983 205.692 505.265 184.254 520.085C162.816 534.904 146.906 556.422 139.02 581.262C131.134 606.102 131.719 632.857 140.683 657.328C149.647 681.799 166.482 702.601 188.547 716.47C210.612 730.339 236.657 736.488 262.595 733.954C288.533 731.42 312.895 720.345 331.858 702.468C350.822 684.591 363.312 660.923 367.37 635.18C368.314 629.119 368.789 622.994 368.79 616.86C368.797 608.144 367.834 599.454 365.92 590.95ZM250.73 705.3C232.498 705.281 214.714 699.647 199.797 689.164C184.879 678.682 173.552 663.859 167.356 646.712C161.16 629.565 160.395 610.926 165.165 593.329C169.935 575.732 180.009 560.031 194.018 548.361C208.026 536.692 225.288 529.619 243.457 528.106C261.627 526.593 279.821 530.712 295.567 539.904C311.312 549.096 323.845 562.914 331.46 579.48C339.076 596.045 341.405 614.554 338.13 632.49C334.38 652.933 323.58 671.414 307.611 684.718C291.642 698.021 271.514 705.304 250.73 705.3V705.3Z" fill="#535461"/>
</g>
<path id="Vector_64" opacity="0.1" d="M368.79 616.86C368.789 622.994 368.314 629.119 367.37 635.18C357.77 634.49 347.85 633.49 338.13 632.49C340.289 620.599 340.021 608.394 337.34 596.61C346.81 594.61 356.48 592.7 365.92 590.97C367.833 599.467 368.795 608.15 368.79 616.86V616.86Z" fill="black"/>
<path id="Vector_65" opacity="0.1" d="M394 586.38V607.65H373.19V589.65C380.39 588.4 387.39 587.29 394 586.38Z" fill="black"/>
<path id="Vector_66" d="M259.54 616.49C259.54 616.49 427.62 572.49 441.22 589.28C454.82 606.07 469.23 628.49 426.85 636.49C384.47 644.49 256.37 622.88 256.37 622.88L259.54 616.49Z" fill="#6C63FF"/>
<path id="Vector_67" opacity="0.1" d="M342.21 542.37L320.85 561.92C317.067 557.064 312.791 552.614 308.09 548.64L328.03 527.81C333.164 532.249 337.908 537.12 342.21 542.37V542.37Z" fill="black"/>
<path id="Vector_68" d="M253.94 607.66L379.59 476.4L383.6 506.81L260.34 619.66L253.94 607.66Z" fill="#6C63FF"/>
<path id="Vector_69" opacity="0.1" d="M252.34 629.27C259.415 629.27 265.15 623.535 265.15 616.46C265.15 609.385 259.415 603.65 252.34 603.65C245.265 603.65 239.53 609.385 239.53 616.46C239.53 623.535 245.265 629.27 252.34 629.27Z" fill="black"/>
<path id="Vector_70" d="M250.73 629.27C257.805 629.27 263.54 623.535 263.54 616.46C263.54 609.385 257.805 603.65 250.73 603.65C243.655 603.65 237.92 609.385 237.92 616.46C237.92 623.535 243.655 629.27 250.73 629.27Z" fill="#535461"/>
<path id="Vector_71" opacity="0.1" d="M676.13 628.07C683.205 628.07 688.94 622.335 688.94 615.26C688.94 608.185 683.205 602.45 676.13 602.45C669.055 602.45 663.32 608.185 663.32 615.26C663.32 622.335 669.055 628.07 676.13 628.07Z" fill="black"/>
<path id="Vector_72" d="M676.93 629.67C684.005 629.67 689.74 623.935 689.74 616.86C689.74 609.785 684.005 604.05 676.93 604.05C669.855 604.05 664.12 609.785 664.12 616.86C664.12 623.935 669.855 629.67 676.93 629.67Z" fill="#535461"/>
<path id="Vector_73" opacity="0.1" d="M449.22 629.27C463.364 629.27 474.83 617.804 474.83 603.66C474.83 589.516 463.364 578.05 449.22 578.05C435.076 578.05 423.61 589.516 423.61 603.66C423.61 617.804 435.076 629.27 449.22 629.27Z" fill="black"/>
<path id="Vector_74" d="M450.83 629.27C464.974 629.27 476.44 617.804 476.44 603.66C476.44 589.516 464.974 578.05 450.83 578.05C436.686 578.05 425.22 589.516 425.22 603.66C425.22 617.804 436.686 629.27 450.83 629.27Z" fill="#535461"/>
<path id="Vector_75" d="M443.992 601.736L443.984 601.742C440.977 603.991 440.362 608.253 442.611 611.26L462.937 638.441C465.186 641.448 469.448 642.063 472.455 639.814L472.463 639.808C475.471 637.559 476.085 633.297 473.836 630.29L453.51 603.109C451.261 600.102 447 599.487 443.992 601.736Z" fill="#6C63FF"/>
<path id="Vector_76" d="M566.48 247.99L564.1 278.1C563.826 281.914 563.876 285.744 564.25 289.55C564.56 292.92 564.25 298.82 560.95 307.82C556.713 319.317 554.523 331.467 554.48 343.72V377.99L531.48 373.99C531.48 373.99 532.48 325.99 528.48 317.99C524.48 309.99 531.48 238.99 531.48 238.99L566.48 247.99Z" fill="#DB8B8B"/>
<path id="Vector_77" opacity="0.05" d="M565.3 262.91L564.1 278.1C563.83 281.911 563.883 285.738 564.26 289.54C564.57 292.91 564.26 298.81 560.96 307.82C556.723 319.317 554.533 331.467 554.49 343.72V377.99L531.49 373.99C531.49 373.99 532.49 325.99 528.49 317.99C525.66 312.32 528.34 275.05 530.15 253.78C530.9 245.03 531.49 238.99 531.49 238.99L566.49 247.99L565.3 262.91Z" fill="black"/>
<path id="Vector_78" d="M452.5 477.99L443.85 527.19C442.759 533.759 441.086 540.218 438.85 546.49C433.78 560.35 437.02 579.78 439.48 590.38C440.57 595.06 441.48 598.02 441.48 598.02L415.48 612.02L407.48 606.02V602.02L406.48 513.02C400.48 499.02 402.48 478.02 406.48 470.02C407.617 467.392 408.417 464.63 408.86 461.8C410.86 451.08 411.48 436.02 411.48 436.02C411.48 436.02 427.48 409.02 446.48 427.02C453.48 433.65 456.14 442.32 456.7 450.62C457.68 464.83 452.5 477.99 452.5 477.99Z" fill="#DB8B8B"/>
<path id="Vector_79" opacity="0.1" d="M456.7 450.59C442.83 458.83 418.7 461.16 408.86 461.77C410.86 451.05 411.48 435.99 411.48 435.99C411.48 435.99 427.48 408.99 446.48 426.99C453.48 433.62 456.14 442.29 456.7 450.59Z" fill="black"/>
<path id="Vector_80" d="M490.48 425.99C479.846 431.653 469.797 438.352 460.48 445.99C444.48 458.99 404.48 459.99 404.48 459.99V444.99C405.48 426.99 388.48 406.99 365.48 350.99C350.79 315.23 354.86 294.99 359.72 284.99C362.48 279.34 365.48 276.99 365.48 276.99L490.48 300.99L494.95 314.39L504.48 342.99C504.48 342.99 469.48 344.99 463.48 347.99C457.48 350.99 461.48 377.99 461.48 377.99C455.48 405.99 490.48 425.99 490.48 425.99Z" fill="#ABB1D1"/>
<path id="Vector_81" opacity="0.1" d="M566.48 247.99L565.3 262.91C547.9 267.91 535.48 251.99 535.48 251.99C533.665 252.477 531.882 253.074 530.14 253.78C530.89 245.03 531.48 238.99 531.48 238.99L566.48 247.99Z" fill="black"/>
<path id="Vector_82" opacity="0.1" d="M494.95 314.39C494.48 319.06 494.48 321.99 494.48 321.99C494.48 321.99 471.48 340.99 432.48 311.99C393.48 282.99 358.48 290.99 358.48 290.99C358.48 290.99 358.89 288.67 359.72 284.99C362.48 279.34 365.48 276.99 365.48 276.99L490.48 300.99L494.95 314.39Z" fill="black"/>
<path id="Vector_83" d="M579.96 208.94C577.35 229.29 576.48 254.94 576.48 254.94C553.48 272.94 535.48 249.94 535.48 249.94C513.76 255.77 503.55 274.78 498.74 291.37C496.164 300.344 494.732 309.607 494.48 318.94C494.48 318.94 488.4 323.94 477.2 324.94C466.61 325.83 451.43 323.07 432.48 308.94C393.48 279.94 358.48 287.94 358.48 287.94C358.48 287.94 365.48 247.94 381.48 235.94C397.48 223.94 409.48 208.94 429.48 162.94C449.48 116.94 490.48 127.94 490.48 127.94C490.48 127.94 492.48 118.94 529.48 127.94C538.492 130.302 546.834 134.721 553.85 140.85C573.64 157.49 583.24 183.3 579.96 208.94Z" fill="white"/>
<path id="Vector_84" d="M542.85 150.49C542.8 151.82 542.69 153.3 542.51 154.95C540.51 172.95 538.51 170.95 516.51 174.95C502.83 177.44 495.72 166.01 492.3 157.01C491.062 153.75 490.128 150.382 489.51 146.95L537.51 138.95C537.51 138.95 543.26 137.34 542.85 150.49Z" fill="#DB8B8B"/>
<path id="Vector_85" opacity="0.05" d="M498.74 291.42C496.164 300.394 494.732 309.657 494.48 318.99C494.48 318.99 488.4 323.99 477.2 324.99C476.884 324.353 476.643 323.682 476.48 322.99C474.48 313.99 459.48 297.99 459.48 297.99C449.48 288.99 447.48 272.99 447.48 272.99L430.98 224.49L425.48 219.99C425.48 219.99 448.48 201.99 468.48 216.99C488.48 231.99 482.48 263.99 482.48 263.99L486.48 274.99C490.63 278.49 494.85 284.66 498.74 291.42Z" fill="black"/>
<path id="Vector_86" d="M428.48 218.99L450.48 271.99C450.48 271.99 452.48 287.99 462.48 296.99C462.48 296.99 477.48 312.99 479.48 321.99C481.48 330.99 509.48 354.99 509.48 354.99C509.48 354.99 535.48 378.99 537.48 387.99C537.48 387.99 561.48 394.99 558.48 408.99C558.48 408.99 576.48 390.99 558.48 373.99C540.48 356.99 516.48 321.99 516.48 321.99C516.48 321.99 502.48 284.99 489.48 273.99L485.48 262.99C485.48 262.99 491.48 230.99 471.48 215.99C451.48 200.99 428.48 218.99 428.48 218.99Z" fill="#DB8B8B"/>
<path id="Vector_87" opacity="0.1" d="M441.48 597.99L415.48 611.99L407.48 605.99V601.99C416.464 601.352 425.193 598.718 433.03 594.28C435.43 592.92 437.69 591.58 439.5 590.4C440.55 595.03 441.48 597.99 441.48 597.99Z" fill="black"/>
<path id="Vector_88" opacity="0.1" d="M471.48 176.99L485.48 231.99C485.48 231.99 442.48 238.99 433.48 231.99C424.48 224.99 407.48 222.99 407.48 222.99C407.48 222.99 425.48 170.99 435.48 164.99C445.48 158.99 471.48 176.99 471.48 176.99Z" fill="black"/>
<path id="Vector_89" d="M471.48 174.99L485.48 229.99C485.48 229.99 442.48 236.99 433.48 229.99C424.48 222.99 407.48 220.99 407.48 220.99C407.48 220.99 425.48 168.99 435.48 162.99C445.48 156.99 471.48 174.99 471.48 174.99Z" fill="white"/>
<path id="Vector_90" opacity="0.1" d="M542.85 149.49C540.049 153.356 536.487 156.609 532.383 159.047C528.278 161.485 523.718 163.058 518.983 163.669C514.248 164.28 509.439 163.915 504.85 162.598C500.261 161.281 495.99 159.039 492.3 156.01C491.062 152.75 490.128 149.382 489.51 145.95L537.51 137.95C537.51 137.95 543.26 136.34 542.85 149.49Z" fill="black"/>
<path id="Vector_91" d="M549.48 127.99C549.48 137.273 545.793 146.175 539.229 152.739C532.665 159.303 523.763 162.99 514.48 162.99C505.197 162.99 496.295 159.303 489.731 152.739C483.168 146.175 479.48 137.273 479.48 127.99C479.48 127.41 479.48 126.83 479.48 126.25C479.711 116.967 483.62 108.157 490.346 101.756C497.073 95.3555 506.067 91.8893 515.35 92.12C524.633 92.3508 533.443 96.2595 539.844 102.986C546.245 109.713 549.711 118.707 549.48 127.99V127.99Z" fill="#DB8B8B"/>
<path id="Vector_92" opacity="0.1" d="M549.48 127.99C549.483 131.216 549.039 134.426 548.16 137.53C545.455 138.12 542.633 137.861 540.08 136.79C536.34 135.32 533.13 132.79 529.54 130.97C519.43 125.85 507.4 126.86 496.2 128.55C490.64 129.39 484.33 130.17 479.96 126.63C479.81 126.511 479.666 126.385 479.53 126.25C479.761 116.967 483.67 108.157 490.396 101.756C497.123 95.3555 506.117 91.8893 515.4 92.12C524.683 92.3508 533.493 96.2595 539.894 102.986C546.295 109.713 549.761 118.707 549.53 127.99H549.48Z" fill="black"/>
<path id="Vector_93" d="M454.16 106.34C456.29 113.02 466.52 113.23 471.77 118.15C474.5 120.71 475.77 124.49 478.77 126.77C482.94 129.95 488.96 129.25 494.27 128.49C504.96 126.97 516.44 126.06 526.08 130.67C529.5 132.3 532.57 134.58 536.14 135.91C539.71 137.24 544.14 137.4 547.04 135.04C549.36 133.15 550.21 130.04 552.31 127.96C553.94 126.32 556.21 125.4 558.07 123.96C562.15 120.88 563.91 115.86 565.07 111.06C567.47 101.18 568.16 90.53 564.07 81.16C559.98 71.79 550.14 64.16 539.4 64.65C536.11 64.8 532.9 65.65 529.62 66.01C521.07 66.88 512.62 64.01 504.04 63.52C501.551 63.2172 499.027 63.5616 496.71 64.52C494.963 65.4908 493.457 66.8406 492.3 68.47C488.372 73.6154 485.682 79.5969 484.44 85.95C483.44 90.74 483.39 95.08 477.52 95.82C470.85 96.7 449.65 92.21 454.16 106.34Z" fill="#472727"/>
<path id="Vector_94" opacity="0.05" d="M385.98 235.49C385.98 235.49 411.98 242.49 419.98 260.49C427.98 278.49 449.62 281.78 449.62 281.78" fill="black"/>
<path id="Vector_95" d="M483.98 631.49H423.98V650.49H483.98V631.49Z" fill="#6C63FF"/>
<path id="Vector_96" opacity="0.1" d="M483.98 631.49H423.98V650.49H483.98V631.49Z" fill="black"/>
<path id="Vector_97" d="M432.99 596.23C438.36 593.23 443.07 590.23 443.48 588.99C443.48 588.99 457.03 603.29 469.1 607.73C473.159 609.229 477.044 611.16 480.69 613.49C485.47 616.49 492.29 620.02 498.48 620.02C498.48 620.02 512.48 632.02 485.48 634.02C458.48 636.02 395.48 629.02 395.48 629.02L399.48 604.02C411.167 604.705 422.804 602 432.99 596.23Z" fill="#ABB1D1"/>
</g>
</svg>
