<svg width="975" height="702" viewBox="0 0 975 702" fill="none" xmlns="http://www.w3.org/2000/svg">
<g id="undraw_dog_walking_0jpt 1" clip-path="url(#clip0)">
<g id="cloud--large">
<path id="Vector" d="M255.97 34.13L240.45 43.97L249.87 26.83C247.203 24.7018 243.902 23.523 240.49 23.48H240.24C239.162 23.4962 238.084 23.4158 237.02 23.24L231.76 26.61L234.01 22.51C230.28 21.2094 227.058 18.7584 224.81 15.51L215.4 21.51L221.34 10.7C215.84 4.09 208.42 0.0400085 200.25 0.0400085C190.46 0.0400085 181.74 5.86001 176.11 14.93C174.445 17.6534 172.086 19.8851 169.274 21.3963C166.463 22.9075 163.3 23.6439 160.11 23.53H159.59C148.78 23.53 140.02 35.79 140.02 50.91C140.02 66.03 148.78 78.28 159.59 78.28C161.965 78.2677 164.301 77.681 166.4 76.57C170.079 74.78 174.104 73.8116 178.194 73.7322C182.285 73.6528 186.344 74.4641 190.09 76.11C193.258 77.5272 196.689 78.2598 200.16 78.2598C203.631 78.2598 207.062 77.5272 210.23 76.11C213.946 74.4985 217.965 73.7054 222.015 73.7848C226.065 73.8642 230.05 74.8141 233.7 76.57C235.784 77.6578 238.099 78.2304 240.45 78.24C251.26 78.24 260.02 65.98 260.02 50.87C260.098 45.0384 258.705 39.2811 255.97 34.13Z" fill="#F2F2F2"/>
<path id="Vector_2" opacity="0.03" d="M226.72 74.18C221.073 73.1049 215.234 73.7385 209.95 76C206.783 77.4139 203.353 78.1447 199.885 78.1447C196.417 78.1447 192.987 77.4139 189.82 76C182.43 72.73 173.18 72.8 166.13 76.47C164.027 77.5791 161.687 78.1623 159.31 78.17C149.71 78.17 141.72 68.5 140.06 55.74C141.976 54.3399 143.606 52.5848 144.86 50.57C150.49 41.44 159.19 35.61 169 35.61C178.81 35.61 187.4 41.36 193 50.34C194.677 53.0521 197.027 55.2842 199.822 56.8193C202.617 58.3543 205.762 59.14 208.95 59.1H209.2C216.88 59.11 223.5 65.24 226.72 74.18Z" fill="black"/>
</g>
<g id="cloud--small">
<path id="Vector_3" d="M785.95 205.74L778.19 210.61L782.89 202.06C781.559 200.999 779.912 200.412 778.21 200.39H778.09C777.551 200.401 777.012 200.36 776.48 200.27L773.86 201.94L774.98 199.89C773.124 199.239 771.518 198.022 770.39 196.41L765.7 199.41L768.7 194.01C767.45 192.403 765.859 191.094 764.041 190.178C762.224 189.261 760.225 188.76 758.19 188.71C753.31 188.71 748.96 191.62 746.19 196.14C745.356 197.5 744.176 198.614 742.771 199.368C741.365 200.121 739.784 200.488 738.19 200.43H737.93C732.54 200.43 728.17 206.54 728.17 214.08C728.17 221.62 732.54 227.73 737.93 227.73C739.115 227.726 740.282 227.434 741.33 226.88C743.164 225.989 745.171 225.506 747.21 225.467C749.249 225.427 751.272 225.831 753.14 226.65C754.721 227.356 756.433 227.72 758.165 227.72C759.897 227.72 761.609 227.356 763.19 226.65C765.045 225.848 767.05 225.453 769.07 225.493C771.09 225.532 773.078 226.005 774.9 226.88C775.937 227.422 777.09 227.707 778.26 227.71C783.65 227.71 788.02 221.6 788.02 214.06C788.034 211.157 787.323 208.297 785.95 205.74Z" fill="#F2F2F2"/>
<path id="Vector_4" opacity="0.03" d="M771.36 225.71C768.541 225.18 765.629 225.497 762.99 226.62C761.416 227.32 759.713 227.681 757.99 227.68C756.266 227.671 754.564 227.303 752.99 226.6C751.121 225.78 749.096 225.377 747.055 225.416C745.014 225.456 743.006 225.938 741.17 226.83C740.123 227.386 738.956 227.677 737.77 227.68C732.98 227.68 729 222.86 728.17 216.49C729.128 215.792 729.943 214.916 730.57 213.91C733.37 209.39 737.72 206.48 742.57 206.48C747.42 206.48 751.75 209.35 754.57 213.83C755.41 215.189 756.59 216.307 757.992 217.073C759.395 217.839 760.972 218.227 762.57 218.2H762.7C766.45 218.2 769.75 221.26 771.36 225.71Z" fill="black"/>
</g>
<g id="building">
<path id="Vector_5" d="M670.3 276.61H541.95V248.87C541.95 247.109 541.25 245.42 540.005 244.175C538.76 242.93 537.071 242.23 535.31 242.23H497.62V212.66C497.62 211.551 497.18 210.488 496.396 209.704C495.612 208.92 494.549 208.48 493.44 208.48H444.89C443.781 208.48 442.718 208.92 441.934 209.704C441.15 210.488 440.71 211.551 440.71 212.66V242.23H396.4C394.639 242.23 392.95 242.93 391.705 244.175C390.46 245.42 389.76 247.109 389.76 248.87V276.61H267.37C267.014 276.613 266.673 276.756 266.422 277.009C266.171 277.262 266.03 277.604 266.03 277.96V646.5C266.03 646.856 266.171 647.198 266.422 647.451C266.673 647.704 267.014 647.847 267.37 647.85H348.71C348.887 647.85 349.063 647.815 349.227 647.747C349.39 647.679 349.539 647.58 349.665 647.455C349.79 647.329 349.889 647.18 349.957 647.017C350.025 646.853 350.06 646.677 350.06 646.5V596.92C350.063 596.563 350.206 596.221 350.458 595.968C350.711 595.716 351.053 595.573 351.41 595.57H385.77C386.127 595.573 386.469 595.716 386.722 595.968C386.974 596.221 387.117 596.563 387.12 596.92V646.5C387.12 646.856 387.261 647.198 387.512 647.451C387.763 647.704 388.104 647.847 388.46 647.85H549.19C549.547 647.847 549.889 647.704 550.142 647.452C550.394 647.199 550.537 646.857 550.54 646.5V596.92C550.54 596.564 550.681 596.222 550.932 595.969C551.183 595.716 551.524 595.573 551.88 595.57H586.24C586.598 595.57 586.941 595.712 587.195 595.965C587.448 596.219 587.59 596.562 587.59 596.92V646.5C587.593 646.857 587.736 647.199 587.988 647.452C588.241 647.704 588.583 647.847 588.94 647.85H670.28C670.637 647.847 670.979 647.704 671.232 647.452C671.484 647.199 671.627 646.857 671.63 646.5V277.98C671.633 277.623 671.495 277.279 671.246 277.022C670.997 276.766 670.657 276.618 670.3 276.61ZM335.5 578.35C335.5 578.705 335.359 579.046 335.108 579.298C334.856 579.549 334.515 579.69 334.16 579.69H283.92C283.743 579.691 283.568 579.658 283.404 579.591C283.24 579.524 283.091 579.426 282.966 579.301C282.841 579.177 282.741 579.028 282.673 578.865C282.605 578.702 282.57 578.527 282.57 578.35V561.19C282.57 560.832 282.712 560.489 282.965 560.235C283.219 559.982 283.562 559.84 283.92 559.84H334.19C334.546 559.843 334.887 559.986 335.138 560.239C335.389 560.492 335.53 560.834 335.53 561.19L335.5 578.35ZM335.5 534.01C335.501 534.187 335.468 534.362 335.401 534.526C335.334 534.69 335.236 534.839 335.111 534.964C334.987 535.089 334.838 535.189 334.675 535.257C334.512 535.325 334.337 535.36 334.16 535.36H283.92C283.742 535.361 283.566 535.327 283.402 535.26C283.237 535.193 283.088 535.093 282.962 534.968C282.837 534.842 282.737 534.693 282.67 534.528C282.603 534.364 282.569 534.188 282.57 534.01V516.86C282.569 516.682 282.603 516.506 282.67 516.342C282.737 516.177 282.837 516.028 282.962 515.902C283.088 515.777 283.237 515.677 283.402 515.61C283.566 515.543 283.742 515.509 283.92 515.51H334.19C334.367 515.51 334.542 515.545 334.705 515.613C334.868 515.681 335.017 515.781 335.141 515.906C335.266 516.032 335.364 516.18 335.431 516.344C335.498 516.508 335.531 516.683 335.53 516.86L335.5 534.01ZM335.5 489.68C335.5 490.036 335.359 490.378 335.108 490.631C334.857 490.884 334.516 491.027 334.16 491.03H283.92C283.562 491.03 283.219 490.888 282.965 490.635C282.712 490.381 282.57 490.038 282.57 489.68V472.52C282.57 472.162 282.712 471.819 282.965 471.565C283.219 471.312 283.562 471.17 283.92 471.17H334.19C334.546 471.173 334.887 471.316 335.138 471.569C335.389 471.822 335.53 472.164 335.53 472.52L335.5 489.68ZM335.5 445.34C335.501 445.517 335.468 445.692 335.401 445.856C335.334 446.02 335.236 446.169 335.111 446.294C334.987 446.42 334.838 446.519 334.675 446.587C334.512 446.655 334.337 446.69 334.16 446.69H283.92C283.742 446.691 283.566 446.657 283.402 446.59C283.237 446.523 283.088 446.423 282.962 446.298C282.837 446.172 282.737 446.023 282.67 445.858C282.603 445.694 282.569 445.518 282.57 445.34V428.19C282.569 428.012 282.603 427.836 282.67 427.672C282.737 427.507 282.837 427.358 282.962 427.232C283.088 427.107 283.237 427.007 283.402 426.94C283.566 426.873 283.742 426.839 283.92 426.84H334.19C334.367 426.84 334.542 426.875 334.705 426.943C334.868 427.011 335.017 427.11 335.141 427.236C335.266 427.361 335.364 427.51 335.431 427.674C335.498 427.838 335.531 428.013 335.53 428.19L335.5 445.34ZM335.5 401.01C335.5 401.366 335.359 401.708 335.108 401.961C334.857 402.214 334.516 402.357 334.16 402.36H283.92C283.743 402.36 283.567 402.325 283.403 402.257C283.24 402.189 283.091 402.09 282.965 401.965C282.84 401.839 282.741 401.69 282.673 401.527C282.605 401.363 282.57 401.187 282.57 401.01V383.85C282.57 383.673 282.605 383.498 282.673 383.335C282.741 383.172 282.841 383.023 282.966 382.899C283.091 382.774 283.24 382.676 283.404 382.609C283.568 382.542 283.743 382.509 283.92 382.51H334.19C334.545 382.51 334.886 382.651 335.138 382.902C335.389 383.154 335.53 383.495 335.53 383.85L335.5 401.01ZM335.5 356.68C335.5 357.035 335.359 357.376 335.108 357.628C334.856 357.879 334.515 358.02 334.16 358.02H283.92C283.743 358.021 283.568 357.988 283.404 357.921C283.24 357.854 283.091 357.756 282.966 357.631C282.841 357.507 282.741 357.358 282.673 357.195C282.605 357.032 282.57 356.857 282.57 356.68V339.52C282.57 339.162 282.712 338.819 282.965 338.565C283.219 338.312 283.562 338.17 283.92 338.17H334.19C334.546 338.173 334.887 338.316 335.138 338.569C335.389 338.822 335.53 339.164 335.53 339.52L335.5 356.68ZM335.5 312.34C335.501 312.517 335.468 312.692 335.401 312.856C335.334 313.02 335.236 313.169 335.111 313.294C334.987 313.419 334.838 313.519 334.675 313.587C334.512 313.655 334.337 313.69 334.16 313.69H283.92C283.742 313.691 283.566 313.657 283.402 313.59C283.237 313.523 283.088 313.423 282.962 313.298C282.837 313.172 282.737 313.023 282.67 312.858C282.603 312.694 282.569 312.518 282.57 312.34V295.19C282.569 295.012 282.603 294.836 282.67 294.672C282.737 294.507 282.837 294.358 282.962 294.232C283.088 294.107 283.237 294.007 283.402 293.94C283.566 293.873 283.742 293.839 283.92 293.84H334.19C334.367 293.84 334.542 293.875 334.705 293.943C334.868 294.011 335.017 294.111 335.141 294.236C335.266 294.361 335.364 294.51 335.431 294.674C335.498 294.838 335.531 295.013 335.53 295.19L335.5 312.34ZM454.61 578.34C454.61 578.517 454.575 578.692 454.507 578.855C454.439 579.018 454.339 579.167 454.214 579.291C454.089 579.416 453.94 579.514 453.776 579.581C453.612 579.648 453.437 579.681 453.26 579.68H403.02C402.664 579.68 402.322 579.539 402.069 579.288C401.816 579.037 401.673 578.696 401.67 578.34V561.19C401.673 560.833 401.816 560.491 402.068 560.238C402.321 559.986 402.663 559.843 403.02 559.84H453.26C453.618 559.84 453.961 559.982 454.215 560.235C454.468 560.489 454.61 560.832 454.61 561.19V578.34ZM454.61 534C454.611 534.178 454.577 534.354 454.51 534.518C454.443 534.683 454.343 534.832 454.218 534.958C454.092 535.083 453.943 535.183 453.778 535.25C453.614 535.317 453.438 535.351 453.26 535.35H403.02C402.843 535.35 402.667 535.315 402.503 535.247C402.34 535.179 402.191 535.08 402.065 534.955C401.94 534.829 401.841 534.68 401.773 534.517C401.705 534.353 401.67 534.177 401.67 534V516.86C401.67 516.502 401.812 516.159 402.065 515.905C402.319 515.652 402.662 515.51 403.02 515.51H453.26C453.438 515.509 453.614 515.543 453.778 515.61C453.943 515.677 454.092 515.777 454.218 515.902C454.343 516.028 454.443 516.177 454.51 516.342C454.577 516.506 454.611 516.682 454.61 516.86V534ZM454.61 489.67C454.61 490.028 454.468 490.371 454.215 490.625C453.961 490.878 453.618 491.02 453.26 491.02H403.02C402.663 491.017 402.321 490.874 402.068 490.622C401.816 490.369 401.673 490.027 401.67 489.67V472.52C401.673 472.163 401.816 471.821 402.068 471.568C402.321 471.316 402.663 471.173 403.02 471.17H453.26C453.618 471.17 453.961 471.312 454.215 471.565C454.468 471.819 454.61 472.162 454.61 472.52V489.67ZM454.61 445.33C454.611 445.508 454.577 445.684 454.51 445.848C454.443 446.013 454.343 446.162 454.218 446.288C454.092 446.413 453.943 446.513 453.778 446.58C453.614 446.647 453.438 446.681 453.26 446.68H403.02C402.662 446.68 402.319 446.538 402.065 446.285C401.812 446.031 401.67 445.688 401.67 445.33V428.19C401.67 427.832 401.812 427.489 402.065 427.235C402.319 426.982 402.662 426.84 403.02 426.84H453.26C453.438 426.839 453.614 426.873 453.778 426.94C453.943 427.007 454.092 427.107 454.218 427.232C454.343 427.358 454.443 427.507 454.51 427.672C454.577 427.836 454.611 428.012 454.61 428.19V445.33ZM454.61 401C454.61 401.358 454.468 401.701 454.215 401.955C453.961 402.208 453.618 402.35 453.26 402.35H403.02C402.663 402.347 402.321 402.204 402.068 401.952C401.816 401.699 401.673 401.357 401.67 401V383.85C401.673 383.494 401.816 383.153 402.069 382.902C402.322 382.651 402.664 382.51 403.02 382.51H453.26C453.437 382.509 453.612 382.542 453.776 382.609C453.94 382.676 454.089 382.774 454.214 382.899C454.339 383.023 454.439 383.172 454.507 383.335C454.575 383.498 454.61 383.673 454.61 383.85V401ZM454.61 356.67C454.61 356.847 454.575 357.022 454.507 357.185C454.439 357.348 454.339 357.497 454.214 357.621C454.089 357.746 453.94 357.844 453.776 357.911C453.612 357.978 453.437 358.011 453.26 358.01H403.02C402.664 358.01 402.322 357.869 402.069 357.618C401.816 357.367 401.673 357.026 401.67 356.67V339.52C401.673 339.163 401.816 338.821 402.068 338.568C402.321 338.316 402.663 338.173 403.02 338.17H453.26C453.618 338.17 453.961 338.312 454.215 338.565C454.468 338.819 454.61 339.162 454.61 339.52V356.67ZM454.61 312.33C454.611 312.508 454.577 312.684 454.51 312.848C454.443 313.013 454.343 313.162 454.218 313.288C454.092 313.413 453.943 313.513 453.778 313.58C453.614 313.647 453.438 313.681 453.26 313.68H403.02C402.843 313.68 402.667 313.645 402.503 313.577C402.34 313.509 402.191 313.41 402.065 313.285C401.94 313.159 401.841 313.01 401.773 312.847C401.705 312.683 401.67 312.507 401.67 312.33V295.19C401.67 294.832 401.812 294.489 402.065 294.235C402.319 293.982 402.662 293.84 403.02 293.84H453.26C453.438 293.839 453.614 293.873 453.778 293.94C453.943 294.007 454.092 294.107 454.218 294.232C454.343 294.358 454.443 294.507 454.51 294.672C454.577 294.836 454.611 295.012 454.61 295.19V312.33ZM536 578.33C536 578.507 535.965 578.682 535.897 578.845C535.829 579.008 535.729 579.157 535.604 579.281C535.479 579.406 535.33 579.504 535.166 579.571C535.002 579.638 534.827 579.671 534.65 579.67H484.41C484.054 579.67 483.712 579.529 483.459 579.278C483.206 579.027 483.063 578.686 483.06 578.33V561.19C483.063 560.833 483.206 560.491 483.458 560.238C483.711 559.986 484.053 559.843 484.41 559.84H534.65C535.008 559.84 535.351 559.982 535.605 560.235C535.858 560.489 536 560.832 536 561.19V578.33ZM536 533.99C536.001 534.168 535.967 534.344 535.9 534.508C535.833 534.673 535.733 534.822 535.608 534.948C535.482 535.073 535.333 535.173 535.168 535.24C535.004 535.307 534.828 535.341 534.65 535.34H484.41C484.233 535.34 484.057 535.305 483.893 535.237C483.73 535.169 483.581 535.07 483.455 534.945C483.33 534.819 483.231 534.67 483.163 534.507C483.095 534.343 483.06 534.167 483.06 533.99V516.86C483.06 516.683 483.095 516.507 483.163 516.343C483.231 516.18 483.33 516.031 483.455 515.905C483.581 515.78 483.73 515.681 483.893 515.613C484.057 515.545 484.233 515.51 484.41 515.51H534.65C534.828 515.509 535.004 515.543 535.168 515.61C535.333 515.677 535.482 515.777 535.608 515.902C535.733 516.028 535.833 516.177 535.9 516.342C535.967 516.506 536.001 516.682 536 516.86V533.99ZM536 489.66C536 489.837 535.965 490.013 535.897 490.177C535.829 490.34 535.73 490.489 535.605 490.615C535.479 490.74 535.33 490.839 535.167 490.907C535.003 490.975 534.827 491.01 534.65 491.01H484.41C484.053 491.007 483.711 490.864 483.458 490.612C483.206 490.359 483.063 490.017 483.06 489.66V472.52C483.063 472.163 483.206 471.821 483.458 471.568C483.711 471.316 484.053 471.173 484.41 471.17H534.65C535.008 471.17 535.351 471.312 535.605 471.565C535.858 471.819 536 472.162 536 472.52V489.66ZM536 445.32C536.001 445.498 535.967 445.674 535.9 445.838C535.833 446.003 535.733 446.152 535.608 446.278C535.482 446.403 535.333 446.503 535.168 446.57C535.004 446.637 534.828 446.671 534.65 446.67H484.41C484.233 446.67 484.057 446.635 483.893 446.567C483.73 446.499 483.581 446.4 483.455 446.275C483.33 446.149 483.231 446 483.163 445.837C483.095 445.673 483.06 445.497 483.06 445.32V428.19C483.06 428.013 483.095 427.837 483.163 427.673C483.231 427.51 483.33 427.361 483.455 427.235C483.581 427.11 483.73 427.011 483.893 426.943C484.057 426.875 484.233 426.84 484.41 426.84H534.65C534.828 426.839 535.004 426.873 535.168 426.94C535.333 427.007 535.482 427.107 535.608 427.232C535.733 427.358 535.833 427.507 535.9 427.672C535.967 427.836 536.001 428.012 536 428.19V445.32ZM536 400.99C536 401.348 535.858 401.691 535.605 401.945C535.351 402.198 535.008 402.34 534.65 402.34H484.41C484.053 402.337 483.711 402.194 483.458 401.942C483.206 401.689 483.063 401.347 483.06 400.99V383.85C483.063 383.494 483.206 383.153 483.459 382.902C483.712 382.651 484.054 382.51 484.41 382.51H534.65C534.827 382.509 535.002 382.542 535.166 382.609C535.33 382.676 535.479 382.774 535.604 382.899C535.729 383.023 535.829 383.172 535.897 383.335C535.965 383.498 536 383.673 536 383.85V400.99ZM536 356.66C536 356.837 535.965 357.012 535.897 357.175C535.829 357.338 535.729 357.487 535.604 357.611C535.479 357.736 535.33 357.834 535.166 357.901C535.002 357.968 534.827 358.001 534.65 358H484.41C484.054 358 483.712 357.859 483.459 357.608C483.206 357.357 483.063 357.016 483.06 356.66V339.52C483.063 339.163 483.206 338.821 483.458 338.568C483.711 338.316 484.053 338.173 484.41 338.17H534.65C535.008 338.17 535.351 338.312 535.605 338.565C535.858 338.819 536 339.162 536 339.52V356.66ZM536 312.32C536.001 312.498 535.967 312.674 535.9 312.838C535.833 313.003 535.733 313.152 535.608 313.278C535.482 313.403 535.333 313.503 535.168 313.57C535.004 313.637 534.828 313.671 534.65 313.67H484.41C484.233 313.67 484.057 313.635 483.893 313.567C483.73 313.499 483.581 313.4 483.455 313.275C483.33 313.149 483.231 313 483.163 312.837C483.095 312.673 483.06 312.497 483.06 312.32V295.19C483.06 295.013 483.095 294.837 483.163 294.673C483.231 294.51 483.33 294.361 483.455 294.235C483.581 294.11 483.73 294.011 483.893 293.943C484.057 293.875 484.233 293.84 484.41 293.84H534.65C534.828 293.839 535.004 293.873 535.168 293.94C535.333 294.007 535.482 294.107 535.608 294.232C535.733 294.358 535.833 294.507 535.9 294.672C535.967 294.836 536.001 295.012 536 295.19V312.32ZM655.11 578.32C655.107 578.676 654.964 579.017 654.711 579.268C654.458 579.519 654.116 579.66 653.76 579.66H603.52C603.343 579.661 603.168 579.628 603.004 579.561C602.84 579.494 602.691 579.396 602.566 579.271C602.44 579.146 602.341 578.998 602.273 578.835C602.205 578.672 602.17 578.497 602.17 578.32V561.19C602.17 560.832 602.312 560.489 602.565 560.235C602.819 559.982 603.162 559.84 603.52 559.84H653.76C654.117 559.843 654.459 559.986 654.712 560.238C654.964 560.491 655.107 560.833 655.11 561.19V578.32ZM655.11 533.98C655.11 534.338 654.968 534.681 654.715 534.935C654.461 535.188 654.118 535.33 653.76 535.33H603.52C603.17 535.327 602.835 535.188 602.586 534.941C602.337 534.694 602.195 534.36 602.19 534.01V516.86C602.189 516.682 602.223 516.506 602.29 516.342C602.357 516.177 602.457 516.028 602.582 515.902C602.708 515.777 602.857 515.677 603.022 515.61C603.186 515.543 603.362 515.509 603.54 515.51H653.78C654.138 515.51 654.481 515.652 654.735 515.905C654.988 516.159 655.13 516.502 655.13 516.86L655.11 533.98ZM655.11 489.65C655.107 490.007 654.964 490.349 654.712 490.602C654.459 490.854 654.117 490.997 653.76 491H603.52C603.162 491 602.819 490.858 602.565 490.605C602.312 490.351 602.17 490.008 602.17 489.65V472.52C602.17 472.162 602.312 471.819 602.565 471.565C602.819 471.312 603.162 471.17 603.52 471.17H653.76C654.117 471.173 654.459 471.316 654.712 471.568C654.964 471.821 655.107 472.163 655.11 472.52V489.65ZM655.11 445.31C655.11 445.668 654.968 446.011 654.715 446.265C654.461 446.518 654.118 446.66 653.76 446.66H603.52C603.342 446.661 603.166 446.627 603.002 446.56C602.837 446.493 602.688 446.393 602.562 446.268C602.437 446.142 602.337 445.993 602.27 445.828C602.203 445.664 602.169 445.488 602.17 445.31V428.19C602.169 428.012 602.203 427.836 602.27 427.672C602.337 427.507 602.437 427.358 602.562 427.232C602.688 427.107 602.837 427.007 603.002 426.94C603.166 426.873 603.342 426.839 603.52 426.84H653.76C654.118 426.84 654.461 426.982 654.715 427.235C654.968 427.489 655.11 427.832 655.11 428.19V445.31ZM655.11 400.98C655.107 401.337 654.964 401.679 654.712 401.932C654.459 402.184 654.117 402.327 653.76 402.33H603.52C603.171 402.325 602.837 402.185 602.589 401.938C602.341 401.692 602.198 401.359 602.19 401.01V383.85C602.19 383.673 602.225 383.498 602.293 383.335C602.361 383.172 602.461 383.023 602.586 382.899C602.711 382.774 602.86 382.676 603.024 382.609C603.188 382.542 603.363 382.509 603.54 382.51H653.78C654.136 382.51 654.478 382.651 654.731 382.902C654.984 383.153 655.127 383.494 655.13 383.85L655.11 400.98ZM655.11 356.65C655.107 357.006 654.964 357.347 654.711 357.598C654.458 357.849 654.116 357.99 653.76 357.99H603.52C603.343 357.991 603.168 357.958 603.004 357.891C602.84 357.824 602.691 357.726 602.566 357.601C602.44 357.477 602.341 357.328 602.273 357.165C602.205 357.002 602.17 356.827 602.17 356.65V339.52C602.17 339.162 602.312 338.819 602.565 338.565C602.819 338.312 603.162 338.17 603.52 338.17H653.76C654.117 338.173 654.459 338.316 654.712 338.568C654.964 338.821 655.107 339.163 655.11 339.52V356.65ZM655.11 312.31C655.11 312.668 654.968 313.011 654.715 313.265C654.461 313.518 654.118 313.66 653.76 313.66H603.52C603.342 313.661 603.166 313.627 603.002 313.56C602.837 313.493 602.688 313.393 602.562 313.268C602.437 313.142 602.337 312.993 602.27 312.828C602.203 312.664 602.169 312.488 602.17 312.31V295.19C602.169 295.012 602.203 294.836 602.27 294.672C602.337 294.507 602.437 294.358 602.562 294.232C602.688 294.107 602.837 294.007 603.002 293.94C603.166 293.873 603.342 293.839 603.52 293.84H653.76C654.118 293.84 654.461 293.982 654.715 294.235C654.968 294.489 655.11 294.832 655.11 295.19V312.31Z" fill="#F2F2F2"/>
</g>
<g id="ground">
<path id="Vector_6" d="M974.38 664.96V669.96C974.375 672.619 973.816 675.247 972.737 677.678C971.659 680.108 970.086 682.287 968.118 684.075C966.15 685.863 963.831 687.221 961.309 688.062C958.787 688.903 956.117 689.209 953.47 688.96C914.32 685.24 875.35 678.32 836.07 679.52C763.65 681.73 690.63 711.35 620.53 693.05C600.76 687.89 581.21 678.92 560.87 680.85C542.62 682.58 526.38 692.9 508.7 697.74C454.93 712.5 400.19 675.2 344.44 676.7C307.7 677.7 272.52 695.59 235.82 693.6C214.55 692.46 194.29 684.68 173.54 679.89C121.88 667.95 68.68 674.63 15.45 678.77C13.5302 678.917 11.6008 678.667 9.78218 678.034C7.96359 677.402 6.29497 676.401 4.88062 675.095C3.46628 673.789 2.33661 672.205 1.56222 670.442C0.787829 668.679 0.385375 666.775 0.380005 664.85V660.61C0.380005 656.897 1.855 653.336 4.48051 650.711C7.10602 648.085 10.667 646.61 14.38 646.61L955.3 645.85C960.362 645.861 965.214 647.878 968.79 651.461C972.367 655.043 974.377 659.898 974.38 664.96Z" fill="#3F3D56"/>
<path id="Vector_7" opacity="0.1" d="M974.38 664.96V669.96C974.375 672.619 973.816 675.247 972.737 677.678C971.659 680.108 970.086 682.287 968.118 684.075C966.15 685.863 963.831 687.221 961.309 688.062C958.787 688.903 956.117 689.209 953.47 688.96C914.32 685.24 875.35 678.32 836.07 679.52C763.65 681.73 690.63 711.35 620.53 693.05C600.76 687.89 581.21 678.92 560.87 680.85C542.62 682.58 526.38 692.9 508.7 697.74C454.93 712.5 400.19 675.2 344.44 676.7C307.7 677.7 272.52 695.59 235.82 693.6C214.55 692.46 194.29 684.68 173.54 679.89C121.88 667.95 68.68 674.63 15.45 678.77C13.5302 678.917 11.6008 678.667 9.78218 678.034C7.96359 677.402 6.29497 676.401 4.88062 675.095C3.46628 673.789 2.33661 672.205 1.56222 670.442C0.787829 668.679 0.385375 666.775 0.380005 664.85V660.61C0.380005 656.897 1.855 653.336 4.48051 650.711C7.10602 648.085 10.667 646.61 14.38 646.61L955.3 645.85C960.362 645.861 965.214 647.878 968.79 651.461C972.367 655.043 974.377 659.898 974.38 664.96Z" fill="black"/>
<path id="Vector_8" d="M974.38 655.81V660.81C974.379 661.505 974.342 662.199 974.27 662.89C973.737 667.89 971.255 672.479 967.361 675.661C963.467 678.844 958.476 680.363 953.47 679.89C914.32 676.16 875.35 669.24 836.07 670.45C763.65 672.67 690.63 702.29 620.53 683.98C600.76 678.82 581.21 669.85 560.87 671.78C542.62 673.51 526.38 683.78 508.7 688.68C454.93 703.36 400.19 666.06 344.44 667.61C307.7 668.61 272.52 686.5 235.82 684.52C214.55 683.37 194.29 675.6 173.54 670.8C121.89 658.87 68.68 665.54 15.45 669.68C11.988 669.947 8.55018 668.918 5.80413 666.793C3.05808 664.668 1.19976 661.598 0.590007 658.18C0.44849 657.381 0.378215 656.571 0.380008 655.76V651.48C0.380008 647.767 1.855 644.206 4.48051 641.581C7.10602 638.955 10.667 637.48 14.38 637.48L250.19 637.28L732 636.88L955.28 636.7C960.347 636.703 965.205 638.717 968.786 642.301C972.368 645.884 974.38 650.743 974.38 655.81Z" fill="#3F3D56"/>
</g>
<g id="tree">
<path id="Vector_9" d="M87.19 535.42C89.3771 531.606 90.506 527.277 90.46 522.88C90.46 511.55 83.46 502.37 74.78 502.37C66.1 502.37 59.11 511.55 59.11 522.88C59.064 527.277 60.1929 531.606 62.38 535.42C60.2359 539.252 59.1101 543.569 59.1101 547.96C59.1101 552.351 60.2359 556.668 62.38 560.5C60.2359 564.332 59.1101 568.649 59.1101 573.04C59.1101 577.431 60.2359 581.748 62.38 585.58C60.2359 589.412 59.1101 593.729 59.1101 598.12C59.1101 602.511 60.2359 606.828 62.38 610.66C60.1942 614.475 59.0654 618.804 59.11 623.2C59.11 634.53 66.11 643.72 74.78 643.72C83.45 643.72 90.46 634.53 90.46 623.2C90.5046 618.804 89.3758 614.475 87.19 610.66C89.3287 606.832 90.4515 602.52 90.4515 598.135C90.4515 593.75 89.3287 589.438 87.19 585.61C89.3341 581.778 90.4599 577.461 90.4599 573.07C90.4599 568.679 89.3341 564.362 87.19 560.53C89.3341 556.698 90.4599 552.381 90.4599 547.99C90.4599 543.599 89.3341 539.282 87.19 535.45V535.42Z" fill="#3F3D56"/>
<path id="Vector_10" d="M74.74 518.33C83.3943 518.33 90.41 509.143 90.41 497.81C90.41 486.477 83.3943 477.29 74.74 477.29C66.0857 477.29 59.07 486.477 59.07 497.81C59.07 509.143 66.0857 518.33 74.74 518.33Z" fill="#3F3D56"/>
<path id="Vector_11" d="M74.74 493.25C83.3943 493.25 90.41 484.063 90.41 472.73C90.41 461.397 83.3943 452.21 74.74 452.21C66.0857 452.21 59.07 461.397 59.07 472.73C59.07 484.063 66.0857 493.25 74.74 493.25Z" fill="#3F3D56"/>
<path id="Vector_12" d="M16.07 301.11C13.9306 298.383 11.9794 295.513 10.23 292.52L51.42 285.75L6.87 286.08C2.60088 276.785 0.272201 266.718 0.0263269 256.492C-0.219547 246.267 1.62255 236.099 5.44 226.61L65.19 257.61L10.09 217.08C15.2468 208.148 22.1885 200.375 30.4822 194.245C38.7758 188.114 48.2435 183.758 58.2949 181.448C68.3463 179.138 78.7659 178.924 88.9037 180.819C99.0416 182.714 108.68 186.677 117.219 192.461C125.758 198.245 133.013 205.727 138.533 214.439C144.052 223.151 147.718 232.906 149.301 243.098C150.884 253.289 150.35 263.697 147.733 273.673C145.116 283.649 140.472 292.978 134.09 301.08C137.432 305.319 140.302 309.909 142.65 314.77L89.19 342.61L146.19 323.48C150.191 335.313 151.18 347.957 149.065 360.269C146.951 372.58 141.8 384.17 134.08 393.99C142.795 405.064 148.217 418.366 149.728 432.377C151.238 446.387 148.775 460.54 142.62 473.216C136.465 485.893 126.866 496.581 114.923 504.059C102.979 511.537 89.1716 515.503 75.08 515.503C60.9884 515.503 47.1812 511.537 35.2374 504.059C23.2936 496.581 13.6954 485.893 7.54045 473.216C1.38549 460.54 -1.07777 446.387 0.432379 432.377C1.94252 418.366 7.3651 405.064 16.08 393.99C5.6698 380.756 0.0100839 364.408 0.0100839 347.57C0.0100839 330.732 5.6698 314.384 16.08 301.15L16.07 301.11Z" fill="#57B894"/>
<path id="Vector_13" opacity="0.1" d="M150.19 347.53C150.212 364.371 144.55 380.727 134.12 393.95C142.835 405.024 148.257 418.326 149.768 432.337C151.278 446.347 148.815 460.5 142.66 473.176C136.505 485.853 126.906 496.541 114.963 504.019C103.019 511.497 89.2116 515.463 75.12 515.463C61.0284 515.463 47.2212 511.497 35.2774 504.019C23.3336 496.541 13.7354 485.853 7.58045 473.176C1.42549 460.5 -1.03777 446.347 0.472379 432.337C1.98252 418.326 7.4051 405.024 16.12 393.95C6.00999 381.17 150.19 339.1 150.19 347.53Z" fill="black"/>
</g>
<g id="dog">
<path id="dog__ear--left" d="M610.98 519.96C610.98 536.66 619.54 537.64 633.81 550.19C648.08 562.74 656.63 536.66 656.63 519.96C656.63 503.26 646.41 489.72 633.81 489.72C621.21 489.72 610.98 503.26 610.98 519.96Z" fill="#915766"/>
<path id="dog__lead" d="M465.31 369.92C463.96 373.19 465.83 377.05 468.62 379.21C471.41 381.37 474.94 382.3 478.29 383.42C493.29 388.42 506.71 398.86 514.13 412.84C521.55 426.82 522.54 444.37 515.51 458.56C511.76 466.13 505.95 472.56 502.51 480.25C495.59 495.55 499.1 514.32 509.04 527.86C518.98 541.4 538.45 544.01 554.7 548.21C554.7 548.21 596.7 581.21 611.7 572.21" stroke="#3F3D56" stroke-miterlimit="10"/>
<path id="dog__leg--left--back" d="M501.66 628.21C501.66 628.21 499.66 645.21 508.66 646.21C513.048 646.604 517.455 646.748 521.86 646.64C524.412 646.608 526.91 645.899 529.099 644.586C531.287 643.272 533.087 641.4 534.315 639.162C535.543 636.924 536.154 634.401 536.087 631.849C536.019 629.297 535.275 626.81 533.93 624.64L533.66 624.22C524.66 610.21 501.66 628.21 501.66 628.21Z" fill="#915766"/>
<path id="dog__belly" d="M506.66 614.21C506.66 614.21 528.66 643.21 561.66 617.21C594.66 591.21 554.66 579.21 554.66 579.21H512.66L487.66 590.21L506.66 614.21Z" fill="#B56D7E"/>
<path id="dog__leg--left--front" d="M596.66 590.21C596.66 590.21 606.66 602.21 615.66 601.21C622.88 600.41 637.18 607.33 634.81 619.91C634.48 621.759 633.788 623.524 632.772 625.104C631.756 626.684 630.438 628.046 628.893 629.114C627.347 630.181 625.606 630.932 623.769 631.323C621.932 631.713 620.036 631.736 618.19 631.39C616.272 631.025 614.48 630.172 612.986 628.915C611.493 627.658 610.347 626.038 609.66 624.21C609.66 624.21 577.66 626.21 578.66 617.21C579.66 608.21 596.66 590.21 596.66 590.21Z" fill="#915766"/>
<path id="dog__body" d="M471.19 578.71C468.771 576.707 466.65 574.371 464.89 571.77C459.58 563.69 470.21 554.59 477.56 560.88L483.19 565.71C483.19 565.71 500.19 551.71 537.19 558.71C537.19 558.71 552.19 557.71 555.19 546.71C555.19 546.71 539.19 511.71 581.19 485.71C588.742 482.432 596.983 481.058 605.19 481.71L605.33 481.72C619.29 482.717 634.223 483.783 644.19 505.71C644.19 505.71 652.36 520.71 661.96 526.49C664.548 528.101 666.758 530.252 668.437 532.796C670.117 535.34 671.226 538.217 671.69 541.23C674.58 558.46 670.92 585.86 612.19 571.71C612.19 571.71 607.69 608.21 579.69 623.21L539.69 599.21L514.19 595.71C482.375 600.17 469.527 598.985 471.19 578.71Z" fill="#9C5E6D"/>
<path id="dog__leg--right-back" d="M514.19 595.71C514.19 595.71 527.19 615.71 514.19 628.71C501.19 641.71 487.19 643.71 487.19 643.71C487.19 643.71 492.19 652.71 473.19 651.71C454.19 650.71 448.19 644.71 454.19 635.71C460.19 626.71 475.19 616.71 472.19 609.71C469.19 602.71 465.19 587.71 471.19 578.71C500.991 558.39 508.576 586.982 514.19 595.71Z" fill="#9C5E6D"/>
<path id="dog__leg--right-front" d="M602.5 580C602.5 580 607.69 608.21 579.69 623.21C579.69 623.21 577.69 633.21 579.69 636.21C581.69 639.21 591.69 653.21 575.69 652.21C567.69 651.72 561.52 651.71 557.27 651.84C555.453 651.897 553.655 651.457 552.069 650.568C550.484 649.679 549.17 648.375 548.27 646.795C547.37 645.215 546.918 643.42 546.962 641.603C547.006 639.786 547.545 638.015 548.52 636.48C548.57 636.39 548.63 636.3 548.69 636.21C548.75 636.12 551.69 622.21 541.69 611.21L539.69 599.21C536.714 569.515 582 549.5 602.5 580Z" fill="#9C5E6D"/>
<path id="dog__nose" d="M655.16 542.72C662.34 542.72 668.16 540.481 668.16 537.72C668.16 534.959 662.34 532.72 655.16 532.72C647.98 532.72 642.16 534.959 642.16 537.72C642.16 540.481 647.98 542.72 655.16 542.72Z" fill="#915766"/>
<path id="dog__collar" d="M554.66 548.21C554.66 548.21 584.66 581.21 611.66 572.21" stroke="#3F3D56" stroke-miterlimit="10"/>
<path id="dog__ear-right" d="M590.98 519.96C590.98 536.66 582.43 537.64 568.16 550.19C553.89 562.74 545.34 536.66 545.34 519.96C545.34 503.26 555.56 489.72 568.16 489.72C580.76 489.72 590.98 503.26 590.98 519.96Z" fill="#915766"/>
</g>
<g id="man">
<g id="man__leg--left">
<path id="man__leg-upper--left" d="M412.76 493.12C413.61 499.18 414.41 511.38 414.41 511.38C440.954 519.858 461.074 530.616 461.57 509.23C462.237 501.23 462.593 493.18 462.64 485.08C462.64 477.44 462.42 469.75 460.75 462.29C458.61 452.8 454.23 443.98 449.88 435.29C447.53 435.66 445.48 437.03 443.49 438.29C437.891 441.912 432.047 445.139 426 447.95C421.94 449.83 414 451.17 411.44 455.11C408.88 459.05 410.54 466.89 410.73 471.17C411.07 478.52 411.75 485.85 412.76 493.12Z" fill="#373549"/>
<g id="man__leg-lower--left">
<path id="man__foot--left" d="M418.37 620.47C418.429 622.303 418.176 624.132 417.62 625.88C416.41 629.06 413.42 631.24 411.88 634.27C409.73 638.48 410.71 643.58 412.13 648.09C413.02 650.92 414.19 653.86 416.58 655.61C418.52 657.02 420.99 657.45 423.36 657.78C443.91 660.62 464.77 658.99 485.5 659.59C489.28 659.7 493.28 659.83 496.58 657.98C499.88 656.13 501.92 651.49 499.67 648.45C497.67 645.72 493.67 645.75 490.29 645.58C481.46 645.137 473.051 641.673 466.47 635.77C465.17 634.665 464.044 633.37 463.13 631.93C462.422 630.655 461.836 629.316 461.38 627.93C458.471 620.061 455.012 612.405 451.03 605.02C449.92 602.95 448.66 600.8 446.58 599.69C445.065 599.004 443.423 598.647 441.76 598.64C436.59 598.3 423.21 596.54 419.22 600.56C415.53 604.26 418.45 615.76 418.37 620.47Z" fill="white"/>
<path id="Vector_14" d="M414.014 511.09C413.604 519.62 410.534 527.85 409.964 536.37C409.534 542.74 410.524 549.18 409.634 555.5C409.064 559.5 407.754 563.44 406.934 567.5C405.649 574.014 405.69 580.72 407.054 587.218C408.419 593.716 411.078 599.873 414.874 605.32C415.43 606.257 416.223 607.029 417.174 607.56C418.088 607.897 419.065 608.026 420.034 607.94C429.64 607.738 439.221 606.862 448.704 605.32C448.978 605.353 449.256 605.33 449.52 605.251C449.784 605.171 450.029 605.038 450.24 604.86C450.45 604.681 450.621 604.461 450.743 604.214C450.864 603.966 450.933 603.696 450.944 603.42C452.704 594.42 448.694 585.32 447.674 576.17C446.584 566.4 448.924 556.61 451.254 547.05C452.308 542.339 453.627 537.692 455.204 533.13C456.324 530.05 457.684 527.07 458.664 523.94C460.043 519.046 460.885 514.016 461.174 508.94C460.028 480.866 436.721 503.069 414.014 511.09Z" fill="#373549"/>
</g>
</g>
<g id="man__leg--right">
<g id="man__leg-lower--right">
<path id="man__foot--right" d="M313.09 555.09C310.133 556.741 307.013 558.082 303.78 559.09C298 560.67 291.78 560.09 285.97 561.44C283.58 561.99 280.97 563.15 280.22 565.44C279.66 567.15 280.22 569 280.85 570.71C287.3 589.63 291.19 609.71 301.49 626.88C305.818 634.079 311.189 640.597 317.43 646.22C319.77 648.33 322.43 650.4 325.55 650.73C326.995 650.882 328.454 650.651 329.78 650.059C331.107 649.468 332.254 648.537 333.106 647.36C333.958 646.184 334.484 644.803 334.633 643.358C334.781 641.913 334.545 640.455 333.95 639.13C333.02 637.13 331.31 635.49 330.2 633.53C328.84 631.13 328.47 628.31 328.13 625.53C327.13 617.44 326.13 608.98 328.94 601.31C330.82 596.17 334.27 591.79 337.14 587.14C340.01 582.49 342.41 577.14 341.77 571.71C341.33 568 339.52 564.61 337.61 561.4C335.7 558.19 331.91 549.54 328.06 548.47C324.21 547.4 316.58 553.3 313.09 555.09Z" fill="white"/>
<path id="Vector_15" d="M411 488C411.71 490.21 410.12 491.03 409.32 493.21C408.637 494.761 407.523 496.084 406.11 497.02C399.54 502.02 391.18 503.79 383.36 506.4C375.8 508.924 368.558 512.317 361.78 516.51C356.12 520.02 350.78 524.08 345.51 528.13L328.64 541.01C327.545 541.745 326.59 542.67 325.82 543.74C324.19 546.29 324.82 549.62 325.67 552.54C327.813 560.263 330.575 567.801 333.93 575.08C334.63 576.61 335.45 578.21 336.93 579.01C339.57 580.42 342.79 578.55 344.8 576.33C346.81 574.11 348.55 571.33 351.38 570.42C354.21 569.51 357.33 570.62 360.28 570.21C365.07 569.53 368.28 565.13 371.69 561.75C385.77 547.93 409.28 548.93 424.78 536.75C427.14 534.89 429.29 532.75 431.87 531.2C434.45 529.65 437.46 528.81 440.18 527.44C448.44 523.28 453.64 514.67 456.42 505.85C448.37 485.788 432.659 481.532 411 488Z" fill="#3F3D56"/>
</g>
<path id="man__leg-upper--right" d="M368.383 364C364.003 375.8 370.443 388.55 376.043 399.82C389.783 427.59 399.383 457.23 408.883 486.74C409.593 488.95 410.313 491.36 409.513 493.54C427.481 505.976 437.829 508.117 456.613 506.18C459.393 497.36 460.193 488.04 462.193 479C463.193 474.33 464.583 469.71 465.043 465C465.34 460.57 465.246 456.123 464.763 451.71L459.173 382.56L459.143 382.187C458.693 376.681 458.244 371.177 457.373 365.72C440.773 366.31 424.183 366.98 407.573 367.18C394.383 367.25 380.883 368.18 368.383 364Z" fill="#3F3D56"/>
</g>
<g id="man__upper-body">
<g id="man__body">
<path id="Vector_16" d="M420.36 155.96C418.36 161.22 415.07 166.15 410.23 168.96L455.87 178.27C454.209 171.61 453.991 164.671 455.23 157.92C455.674 156.291 455.766 154.587 455.5 152.92C454.64 149.61 450.91 148.01 447.58 147.25C439.25 145.35 431.88 144.33 424.14 140.66C421.78 144.71 422.11 151.29 420.36 155.96Z" fill="#FBBEBE"/>
<path id="Vector_17" d="M409.84 156.61C414.751 154.391 420.101 153.312 425.489 153.454C430.877 153.596 436.162 154.955 440.95 157.43C446.8 160.51 451.65 165.17 456.41 169.76C460.8 173.99 465.48 178.84 465.79 184.93C465.94 187.88 465.02 190.76 464.55 193.68C463.717 199.712 464.781 205.853 467.594 211.253C470.407 216.654 474.83 221.045 480.25 223.82C483.87 229.82 484.62 237.18 484.68 244.23C484.89 270.92 476.47 297.94 482.48 323.95C483.89 330.05 486.08 335.95 487.3 342.11C488.88 350.11 488.8 358.26 489.63 366.34C490.524 375.084 492.479 383.688 495.45 391.96C493.45 395.12 489.33 396.33 485.61 396.07C481.89 395.81 478.4 394.2 475.08 392.5C459 384.27 444.26 373.42 427.6 366.42C416.6 361.79 404.84 358.91 394.15 353.56C383.46 348.21 373.51 339.73 370.24 328.24C368.83 323.24 368.74 318.03 368.66 312.86C368.34 291.09 368.04 269.08 372.78 247.86C376.95 229.12 385.01 211.2 386.78 192.08C387.35 185.85 387.36 179.19 390.84 174C395.74 166.61 406.35 164.74 409.84 156.61Z" fill="#3F3D56"/>
<path id="Vector_18" d="M362.05 379.84C364.3 383.47 369.78 383.39 373.55 381.41C377.32 379.43 380.26 376.08 384.04 374.12C389.13 371.47 395.14 371.57 400.87 371.73C409.94 371.99 419.12 372.26 427.87 374.73C436.87 377.3 445.68 382.25 455.02 381.26C456.64 381.09 458.42 380.62 459.3 379.26C459.813 378.263 460.058 377.15 460.01 376.03L460.31 367.87C460.494 366.463 460.268 365.032 459.66 363.75C458.879 362.679 457.806 361.856 456.57 361.38C443.28 354.95 428.14 353.75 413.39 353.24C405.89 352.993 398.387 352.89 390.88 352.93C384.52 352.93 376.88 352.05 370.68 353.75C362.35 356.04 357.83 373.07 362.05 379.84Z" fill="#3F3D56"/>
<path id="Vector_19" d="M445.46 166.3C428.05 166.15 412.28 154.66 394.88 154.38C392.775 154.239 390.666 154.602 388.73 155.44C386.31 156.66 384.73 159.02 382.87 161.02C377.73 166.59 370.27 169.57 364.99 175.02C359.99 180.12 357.27 187.71 359.23 194.55C361.19 201.39 368.57 206.63 375.49 204.99C378.278 195.968 384.033 188.152 391.82 182.81C395.868 180.207 400.138 177.965 404.58 176.11C412.41 172.56 421.15 168.95 429.32 171.61C432.333 172.746 435.173 174.294 437.76 176.21L451.37 185.35C449.79 179.09 448.36 172.07 445.46 166.3Z" fill="#6C63FF"/>
<path id="Vector_20" d="M373.49 198.93C371.18 201.81 374.49 205.99 374 209.65C373.66 212.08 371.66 213.94 370.82 216.25C369.98 218.56 370.42 221.25 370.09 223.81C369.761 225.645 369.276 227.448 368.64 229.2C367.172 234.438 366.149 239.79 365.58 245.2L362.53 267.96C361.987 271.38 361.653 274.83 361.53 278.29C361.53 280.88 361.69 283.52 361.01 286.02C360.33 288.52 358.85 290.69 357.84 293.02C356.83 295.35 356.37 298.26 357.73 300.45C353.18 304.23 351.83 311.67 355.01 316.66C355.617 317.436 356.09 318.308 356.41 319.24C356.587 320.54 356.371 321.863 355.79 323.04L352.71 331.25C351.92 333.35 351.71 336.55 353.87 337.03C352.052 338.915 350.636 341.15 349.71 343.6C349.258 344.829 349.123 346.152 349.317 347.447C349.511 348.742 350.028 349.967 350.82 351.01C351.581 351.685 352.233 352.474 352.75 353.35C353.22 354.51 352.81 355.82 352.52 357.04C352.059 358.833 351.97 360.701 352.259 362.529C352.548 364.357 353.209 366.107 354.2 367.67C355.225 369.214 356.678 370.426 358.382 371.156C360.085 371.886 361.965 372.103 363.79 371.78C369.95 370.39 375.49 368.2 381.7 369.34C395.08 371.79 408.5 374.26 421.46 378.4C436.24 383.12 450.56 390.04 466.02 391.49C467.043 391.708 468.11 391.545 469.02 391.03C469.807 390.284 470.297 389.279 470.4 388.2L475.19 365.81C477.116 357.534 478.582 349.158 479.58 340.72C480.13 335.28 480.28 329.8 480.44 324.33L481.67 280.79C482.26 274.374 481.413 267.907 479.19 261.86L472.11 239.26C468.11 226.36 458.8 214.92 455.5 201.81C453.41 193.51 451.87 184.61 446.26 178.14C438.26 168.92 424.46 167.49 412.37 169.07C406.9 169.79 401.37 171.07 396.67 173.86C391.2 177.13 387.18 182.29 383.28 187.34C380.04 191.49 376.77 194.83 373.49 198.93Z" fill="#6C63FF"/>
</g>
<g id="man__head">
<path id="Vector_21" d="M450.16 161.72C468.385 161.72 483.16 146.945 483.16 128.72C483.16 110.495 468.385 95.72 450.16 95.72C431.935 95.72 417.16 110.495 417.16 128.72C417.16 146.945 431.935 161.72 450.16 161.72Z" fill="#FBBEBE"/>
<path id="Vector_22" d="M431.39 129.18C433.34 126.64 437.09 126.3 440.2 127.05C443.31 127.8 446.2 129.4 449.3 130.05C450.014 130.251 450.763 130.302 451.498 130.198C452.233 130.095 452.939 129.84 453.57 129.45C454.78 128.52 455.15 126.89 455.41 125.38C456.507 118.843 456.763 112.192 456.17 105.59C456.008 104.662 456.069 103.709 456.35 102.81C457.13 100.94 459.5 100.49 461.43 99.89C464.623 98.8127 467.367 96.7019 469.227 93.8913C471.087 91.0807 471.957 87.7305 471.7 84.37C471.655 82.7565 470.976 81.2258 469.81 80.11C468.47 79.02 466.6 78.95 464.87 78.93C456.003 78.8633 447.133 78.8633 438.26 78.93C434.98 78.93 431.53 79.04 428.68 80.68C426.58 81.89 425.01 83.83 423.12 85.36C418.2 89.36 411.53 90.14 405.54 92.18C402.613 93.0142 399.955 94.6001 397.83 96.78C395.83 99.06 394.88 102.44 396.13 105.2C396.775 106.348 397.493 107.454 398.28 108.51C401.82 114.16 399.46 121.51 399.99 128.14C400.65 136.44 412.93 149.91 421.26 151.87C434.71 155.01 426.94 134.61 431.39 129.18Z" fill="#3F3D56"/>
</g>
<g id="man__arm--right">
<path id="Vector_23" d="M401.73 327C402.73 331.3 404.82 335.26 406.1 339.48C408.24 346.55 408.1 354.17 410.2 361.24C411.1 364.24 412.41 367.06 413.05 370.09C414.56 377.17 412.36 384.48 409.63 391.18C406.9 397.88 403.58 404.48 402.69 411.66C402.07 416.71 402.97 422.42 406.86 425.66C410.91 429.07 416.78 428.84 422.05 428.38C423.943 428.327 425.811 427.941 427.57 427.24C431.57 425.33 433.29 420.56 434.24 416.24C437.39 401.64 436.49 386.51 435.57 371.6L433.19 332.61C432.73 325.11 432.19 317.45 429.92 310.24C429.08 307.62 427.62 302.32 425.22 300.64C422.82 298.96 416.08 298.91 413.14 298.77C399.34 298.13 399.5 317.36 401.73 327Z" fill="#FBBEBE"/>
<path id="Vector_24" d="M416.99 183.04C414.18 181.57 410.64 182.2 407.92 183.85C405.2 185.5 403.13 187.99 401.11 190.45C395.03 197.87 388.6 206.39 389.5 215.94C389.84 219.52 391.21 222.94 392.14 226.39C396.21 241.62 391.71 257.74 392.22 273.51C392.52 282.62 394.5 291.58 396.48 300.51C396.88 302.32 397.48 304.42 399.28 305.04C400.6 305.49 402.03 304.9 403.28 304.41C408.146 302.612 413.373 302.011 418.519 302.658C423.666 303.306 428.581 305.182 432.85 308.13C436.12 306.39 434.85 300.89 434.16 297.26C431.99 286.49 434.94 275.38 438.52 264.99C442.1 254.6 446.39 244.23 446.99 233.26C447.66 220.82 443.54 208.69 439.47 196.92C438.58 194.35 437.61 191.66 435.55 189.92C433.788 188.614 431.771 187.694 429.63 187.22C425.36 185.87 420.98 185.13 416.99 183.04Z" fill="#3F3D56"/>
</g>
</g>
</g>
<g id="plant">
<path id="Vector_25" d="M890.17 657.407C893.17 651.897 889.76 645.147 885.88 640.227C882 635.307 877.27 630.227 877.37 623.937C877.52 614.937 887.07 609.627 894.7 604.857C900.361 601.314 905.584 597.115 910.26 592.347C912.214 590.509 913.832 588.343 915.04 585.947C916.62 582.427 916.57 578.427 916.47 574.567C916.143 561.727 915.51 548.897 914.57 536.077" stroke="#3F3D56" stroke-width="4" stroke-miterlimit="10"/>
<path id="Vector_26" d="M929.08 535.377C928.974 533.027 928.277 530.741 927.053 528.731C925.83 526.721 924.119 525.052 922.08 523.877L918.94 530.097L919.03 522.567C917.532 522.125 915.97 521.939 914.41 522.017C911.648 522.155 908.987 523.107 906.766 524.754C904.544 526.401 902.86 528.67 901.926 531.274C900.992 533.877 900.85 536.699 901.519 539.383C902.187 542.067 903.635 544.493 905.681 546.354C907.726 548.216 910.278 549.43 913.012 549.843C915.747 550.256 918.543 549.85 921.048 548.676C923.552 547.502 925.652 545.612 927.083 543.245C928.515 540.878 929.213 538.141 929.09 535.377H929.08Z" fill="#57B894"/>
<path id="Vector_27" d="M904.05 630.367C902.578 633.221 900.17 635.481 897.229 636.77C894.288 638.059 890.994 638.299 887.898 637.448C884.802 636.597 882.093 634.708 880.224 632.097C878.355 629.486 877.441 626.312 877.634 623.107C877.827 619.902 879.115 616.861 881.284 614.493C883.452 612.125 886.368 610.575 889.544 610.101C892.72 609.628 895.961 610.26 898.726 611.893C901.491 613.525 903.611 616.058 904.73 619.067L895.96 626.207L905.61 623.967C905.606 626.195 905.072 628.389 904.05 630.367Z" fill="#57B894"/>
<path id="Vector_28" d="M897.12 603.127C893.624 603.388 890.158 602.328 887.406 600.157C884.654 597.985 882.817 594.86 882.257 591.4C881.698 587.939 882.458 584.394 884.386 581.467C886.314 578.539 889.27 576.441 892.67 575.587L892.59 581.367L895.77 575.077C897.612 574.987 899.454 575.262 901.19 575.886C902.925 576.51 904.521 577.471 905.884 578.713C907.247 579.956 908.351 581.455 909.133 583.126C909.915 584.796 910.359 586.605 910.44 588.447C910.522 590.067 910.318 591.688 909.84 593.238C908.99 595.992 907.314 598.418 905.039 600.187C902.763 601.956 899.999 602.983 897.12 603.127Z" fill="#57B894"/>
<path id="Vector_29" d="M931.19 580.447C927.477 580.622 923.846 579.315 921.097 576.814C918.348 574.312 916.705 570.82 916.53 567.107C916.355 563.394 917.662 559.764 920.164 557.015C922.665 554.265 926.157 552.622 929.87 552.447C932.495 552.317 935.102 552.934 937.39 554.227L934.91 561.017L940.02 556.127C942.751 558.628 944.379 562.109 944.55 565.807C944.617 567.107 944.499 568.411 944.2 569.677C943.5 572.644 941.85 575.301 939.502 577.245C937.154 579.189 934.235 580.313 931.19 580.447Z" fill="#57B894"/>
<path id="Vector_30" opacity="0.1" d="M927.19 539.117C923.95 539.477 920.8 540.487 917.55 540.687C914.3 540.887 910.73 540.107 908.67 537.577C907.57 536.217 907.01 534.497 906.08 533.007C905.191 531.627 903.975 530.487 902.54 529.687C901.691 531.458 901.224 533.387 901.17 535.35C901.115 537.313 901.474 539.265 902.223 541.08C902.972 542.895 904.095 544.532 905.518 545.885C906.941 547.238 908.633 548.277 910.483 548.933C912.334 549.59 914.301 549.85 916.259 549.696C918.217 549.543 920.12 548.979 921.845 548.042C923.571 547.105 925.08 545.816 926.275 544.257C927.469 542.699 928.323 540.907 928.78 538.997C928.25 539.027 927.72 539.057 927.19 539.117Z" fill="black"/>
<path id="Vector_31" opacity="0.1" d="M931.19 580.447C928.77 580.57 926.359 580.063 924.193 578.974C922.028 577.886 920.182 576.254 918.836 574.238C917.491 572.222 916.692 569.892 916.517 567.474C916.342 565.057 916.798 562.636 917.84 560.447C918.956 561.197 919.914 562.159 920.66 563.277C921.66 564.787 922.27 566.527 923.44 567.907C925.63 570.487 929.36 571.327 932.75 571.167C936.14 571.007 939.41 570.057 942.75 569.747C943.22 569.697 943.69 569.667 944.17 569.657C943.475 572.623 941.831 575.281 939.489 577.229C937.146 579.176 934.233 580.306 931.19 580.447Z" fill="black"/>
<path id="Vector_32" opacity="0.1" d="M897.12 603.127C894.721 603.251 892.331 602.755 890.179 601.687C888.028 600.619 886.187 599.016 884.834 597.031C883.481 595.047 882.661 592.747 882.454 590.354C882.247 587.961 882.659 585.555 883.65 583.367C884.821 584.119 885.839 585.086 886.65 586.217C887.74 587.757 888.42 589.527 889.65 590.947C892.02 593.587 896 594.507 899.58 594.427C903.16 594.347 906.41 593.497 909.86 593.237C909.009 595.995 907.33 598.423 905.05 600.193C902.771 601.962 900.002 602.987 897.12 603.127Z" fill="black"/>
<path id="Vector_33" opacity="0.1" d="M904.05 630.367C903.298 632.048 902.223 633.563 900.885 634.828C899.548 636.093 897.974 637.082 896.254 637.738C894.535 638.395 892.702 638.706 890.862 638.654C889.022 638.603 887.21 638.189 885.53 637.437C883.85 636.686 882.334 635.61 881.069 634.273C879.805 632.935 878.816 631.361 878.159 629.642C877.503 627.922 877.192 626.09 877.243 624.25C877.295 622.41 877.708 620.598 878.46 618.917C879.616 619.678 880.654 620.605 881.54 621.667C882.88 623.297 883.76 625.137 885.3 626.667C888.17 629.477 892.8 630.667 896.93 630.747C899.309 630.762 901.686 630.635 904.05 630.367Z" fill="black"/>
<path id="Vector_34" d="M869 651.067C869 651.067 880.08 650.718 883.42 648.348C886.76 645.978 900.42 643.127 901.28 646.937C902.14 650.747 917.93 665.937 905.42 666.007C892.91 666.077 876.42 664.007 873.03 662.007C869.64 660.007 869 651.067 869 651.067Z" fill="#656380"/>
<path id="Vector_35" opacity="0.2" d="M905.65 664.647C893.14 664.747 876.59 662.697 873.26 660.647C870.72 659.107 869.71 653.557 869.37 650.997H869C869 650.997 869.7 659.927 873 661.997C876.3 664.067 892.89 666.077 905.39 665.997C909 665.997 910.25 664.677 910.18 662.777C909.71 663.937 908.38 664.647 905.65 664.647Z" fill="black"/>
</g>
</g>
<defs>
<clipPath id="clip0">
<rect width="974.38" height="701.23" fill="white"/>
</clipPath>
</defs>
</svg>
