<svg width="918" height="681" viewBox="0 0 918 681" fill="none" xmlns="http://www.w3.org/2000/svg">
<g id="undraw_progress_indicator 1" clip-path="url(#clip0)">
<path id="Vector" d="M144.44 235.086C126.14 235.086 108.589 227.817 95.6494 214.877C82.7094 201.937 75.4398 184.386 75.4398 166.086C75.4398 147.786 82.7094 130.236 95.6494 117.296C108.589 104.356 126.14 97.0864 144.44 97.0864H772.44C790.74 97.0864 808.29 104.356 821.23 117.296C834.17 130.236 841.44 147.786 841.44 166.086C841.44 184.386 834.17 201.937 821.23 214.877C808.29 227.817 790.74 235.086 772.44 235.086H144.44Z" fill="#E6E6E6"/>
<path id="Vector_2" d="M144.44 106.086C128.527 106.086 113.266 112.408 102.013 123.66C90.7612 134.912 84.4398 150.173 84.4398 166.086C84.4398 181.999 90.7612 197.261 102.013 208.513C113.266 219.765 128.527 226.086 144.44 226.086H772.44C788.353 226.086 803.614 219.765 814.866 208.513C826.118 197.261 832.44 181.999 832.44 166.086C832.44 150.173 826.118 134.912 814.866 123.66C803.614 112.408 788.353 106.086 772.44 106.086H144.44Z" fill="white"/>
<path id="Vector_3" d="M210.107 106.087H208.107V226.087H210.107V106.087Z" fill="#E6E6E6"/>
<path id="Vector_4" d="M334.94 106.087H332.94V226.087H334.94V106.087Z" fill="#E6E6E6"/>
<path id="Vector_5" d="M459.94 106.087H457.94V226.087H459.94V106.087Z" fill="#E6E6E6"/>
<path id="Vector_6" d="M583.94 106.087H581.94V226.087H583.94V106.087Z" fill="#E6E6E6"/>
<path id="Vector_7" d="M708.94 106.087H706.94V226.087H708.94V106.087Z" fill="#E6E6E6"/>
<g id="step2">
<path id="Vector_8" d="M242.617 148.086C241.849 148.086 241.113 148.391 240.57 148.934C240.027 149.478 239.722 150.214 239.722 150.982C239.722 151.75 240.027 152.486 240.57 153.029C241.113 153.573 241.849 153.878 242.617 153.878H301.357C301.737 153.878 302.115 153.804 302.467 153.659C302.818 153.514 303.138 153.3 303.408 153.031C303.677 152.762 303.891 152.443 304.037 152.091C304.183 151.74 304.258 151.363 304.258 150.982C304.258 150.601 304.183 150.224 304.037 149.873C303.891 149.521 303.677 149.202 303.408 148.933C303.138 148.664 302.818 148.45 302.467 148.305C302.115 148.16 301.737 148.086 301.357 148.086H242.617Z" fill="#E6E6E6"/>
<path id="Vector_9" d="M242.617 163.086C241.849 163.086 241.113 163.391 240.57 163.934C240.027 164.478 239.722 165.214 239.722 165.982C239.722 166.75 240.027 167.486 240.57 168.029C241.113 168.573 241.849 168.878 242.617 168.878H301.357C301.737 168.878 302.115 168.804 302.467 168.659C302.818 168.514 303.138 168.3 303.408 168.031C303.677 167.762 303.891 167.443 304.037 167.091C304.183 166.74 304.258 166.363 304.258 165.982C304.258 165.601 304.183 165.224 304.037 164.873C303.891 164.521 303.677 164.202 303.408 163.933C303.138 163.664 302.818 163.45 302.467 163.305C302.115 163.16 301.737 163.086 301.357 163.086H242.617Z" fill="#E6E6E6"/>
<path id="Vector_10" d="M242.617 178.086C241.849 178.086 241.113 178.391 240.57 178.934C240.027 179.478 239.722 180.214 239.722 180.982C239.722 181.75 240.027 182.486 240.57 183.029C241.113 183.573 241.849 183.878 242.617 183.878H301.357C301.737 183.878 302.115 183.804 302.467 183.659C302.818 183.514 303.138 183.3 303.408 183.031C303.677 182.762 303.891 182.443 304.037 182.091C304.183 181.74 304.258 181.363 304.258 180.982C304.258 180.601 304.183 180.224 304.037 179.873C303.891 179.521 303.677 179.202 303.408 178.933C303.138 178.664 302.818 178.45 302.467 178.305C302.115 178.16 301.737 178.086 301.357 178.086H242.617Z" fill="#E6E6E6"/>
</g>
<g id="step3">
<path id="Vector_11" d="M366.617 148.086C365.849 148.086 365.113 148.391 364.57 148.934C364.027 149.478 363.722 150.214 363.722 150.982C363.722 151.75 364.027 152.486 364.57 153.029C365.113 153.573 365.849 153.878 366.617 153.878H425.357C426.125 153.878 426.861 153.573 427.404 153.029C427.947 152.486 428.252 151.75 428.252 150.982C428.252 150.214 427.947 149.478 427.404 148.934C426.861 148.391 426.125 148.086 425.357 148.086H366.617Z" fill="#6C63FF"/>
<path id="Vector_12" d="M366.617 163.086C365.849 163.086 365.113 163.391 364.57 163.934C364.027 164.478 363.722 165.214 363.722 165.982C363.722 166.75 364.027 167.486 364.57 168.029C365.113 168.573 365.849 168.878 366.617 168.878H425.357C426.125 168.878 426.861 168.573 427.404 168.029C427.947 167.486 428.252 166.75 428.252 165.982C428.252 165.214 427.947 164.478 427.404 163.934C426.861 163.391 426.125 163.086 425.357 163.086H366.617Z" fill="#6C63FF"/>
<path id="Vector_13" d="M366.617 178.086C365.849 178.086 365.113 178.391 364.57 178.934C364.027 179.478 363.722 180.214 363.722 180.982C363.722 181.75 364.027 182.486 364.57 183.029C365.113 183.573 365.849 183.878 366.617 183.878H425.357C426.125 183.878 426.861 183.573 427.404 183.029C427.947 182.486 428.252 181.75 428.252 180.982C428.252 180.214 427.947 179.478 427.404 178.934C426.861 178.391 426.125 178.086 425.357 178.086H366.617Z" fill="#6C63FF"/>
</g>
<g id="step4">
<path id="Vector_14" d="M491.617 148.086C490.85 148.088 490.115 148.393 489.573 148.936C489.031 149.479 488.727 150.215 488.727 150.982C488.727 151.749 489.031 152.485 489.573 153.028C490.115 153.57 490.85 153.876 491.617 153.878H550.357C551.125 153.878 551.861 153.573 552.404 153.029C552.947 152.486 553.252 151.75 553.252 150.982C553.252 150.214 552.947 149.478 552.404 148.934C551.861 148.391 551.125 148.086 550.357 148.086H491.617Z" fill="#E6E6E6"/>
<path id="Vector_15" d="M491.617 163.086C490.85 163.088 490.115 163.393 489.573 163.936C489.031 164.479 488.727 165.215 488.727 165.982C488.727 166.749 489.031 167.485 489.573 168.028C490.115 168.57 490.85 168.876 491.617 168.878H550.357C551.125 168.878 551.861 168.573 552.404 168.029C552.947 167.486 553.252 166.75 553.252 165.982C553.252 165.214 552.947 164.478 552.404 163.934C551.861 163.391 551.125 163.086 550.357 163.086H491.617Z" fill="#E6E6E6"/>
<path id="Vector_16" d="M491.617 178.086C490.85 178.088 490.115 178.393 489.573 178.936C489.031 179.479 488.727 180.215 488.727 180.982C488.727 181.749 489.031 182.485 489.573 183.028C490.115 183.57 490.85 183.876 491.617 183.878H550.357C551.125 183.878 551.861 183.573 552.404 183.029C552.947 182.486 553.252 181.75 553.252 180.982C553.252 180.214 552.947 179.478 552.404 178.934C551.861 178.391 551.125 178.086 550.357 178.086H491.617Z" fill="#E6E6E6"/>
</g>
<g id="step5">
<path id="Vector_17" d="M616.117 148.086C615.35 148.088 614.615 148.393 614.073 148.936C613.531 149.479 613.227 150.215 613.227 150.982C613.227 151.749 613.531 152.485 614.073 153.028C614.615 153.57 615.35 153.876 616.117 153.878H674.857C675.625 153.878 676.361 153.573 676.904 153.029C677.447 152.486 677.752 151.75 677.752 150.982C677.752 150.214 677.447 149.478 676.904 148.934C676.361 148.391 675.625 148.086 674.857 148.086H616.117Z" fill="#E6E6E6"/>
<path id="Vector_18" d="M616.117 163.086C615.35 163.088 614.615 163.393 614.073 163.936C613.531 164.479 613.227 165.215 613.227 165.982C613.227 166.749 613.531 167.485 614.073 168.028C614.615 168.57 615.35 168.876 616.117 168.878H674.857C675.625 168.878 676.361 168.573 676.904 168.029C677.447 167.486 677.752 166.75 677.752 165.982C677.752 165.214 677.447 164.478 676.904 163.934C676.361 163.391 675.625 163.086 674.857 163.086H616.117Z" fill="#E6E6E6"/>
<path id="Vector_19" d="M616.117 178.086C615.35 178.088 614.615 178.393 614.073 178.936C613.531 179.479 613.227 180.215 613.227 180.982C613.227 181.749 613.531 182.485 614.073 183.028C614.615 183.57 615.35 183.876 616.117 183.878H674.857C675.625 183.878 676.361 183.573 676.904 183.029C677.447 182.486 677.752 181.75 677.752 180.982C677.752 180.214 677.447 179.478 676.904 178.934C676.361 178.391 675.625 178.086 674.857 178.086H616.117Z" fill="#E6E6E6"/>
</g>
<g id="step6">
<path id="Vector_20" d="M737.617 148.086C736.85 148.088 736.115 148.393 735.573 148.936C735.031 149.479 734.727 150.215 734.727 150.982C734.727 151.749 735.031 152.485 735.573 153.028C736.115 153.57 736.85 153.876 737.617 153.878H796.357C797.125 153.878 797.861 153.573 798.404 153.029C798.947 152.486 799.252 151.75 799.252 150.982C799.252 150.214 798.947 149.478 798.404 148.934C797.861 148.391 797.125 148.086 796.357 148.086H737.617Z" fill="#E6E6E6"/>
<path id="Vector_21" d="M737.617 163.086C736.85 163.088 736.115 163.393 735.573 163.936C735.031 164.479 734.727 165.215 734.727 165.982C734.727 166.749 735.031 167.485 735.573 168.028C736.115 168.57 736.85 168.876 737.617 168.878H796.357C797.125 168.878 797.861 168.573 798.404 168.029C798.947 167.486 799.252 166.75 799.252 165.982C799.252 165.214 798.947 164.478 798.404 163.934C797.861 163.391 797.125 163.086 796.357 163.086H737.617Z" fill="#E6E6E6"/>
<path id="Vector_22" d="M737.617 178.086C736.85 178.088 736.115 178.393 735.573 178.936C735.031 179.479 734.727 180.215 734.727 180.982C734.727 181.749 735.031 182.485 735.573 183.028C736.115 183.57 736.85 183.876 737.617 183.878H796.357C797.125 183.878 797.861 183.573 798.404 183.029C798.947 182.486 799.252 181.75 799.252 180.982C799.252 180.214 798.947 179.478 798.404 178.934C797.861 178.391 797.125 178.086 796.357 178.086H737.617Z" fill="#E6E6E6"/>
</g>
<g id="step1">
<path id="Vector_23" d="M117.617 148.086C116.85 148.088 116.115 148.393 115.573 148.936C115.031 149.479 114.727 150.215 114.727 150.982C114.727 151.749 115.031 152.485 115.573 153.028C116.115 153.57 116.85 153.876 117.617 153.878H176.357C176.737 153.878 177.115 153.804 177.467 153.659C177.818 153.514 178.138 153.3 178.408 153.031C178.677 152.762 178.891 152.443 179.037 152.091C179.183 151.74 179.258 151.363 179.258 150.982C179.258 150.601 179.183 150.224 179.037 149.873C178.891 149.521 178.677 149.202 178.408 148.933C178.138 148.664 177.818 148.45 177.467 148.305C177.115 148.16 176.737 148.086 176.357 148.086H117.617Z" fill="#E6E6E6"/>
<path id="Vector_24" d="M117.617 163.086C116.85 163.088 116.115 163.393 115.573 163.936C115.031 164.479 114.727 165.215 114.727 165.982C114.727 166.749 115.031 167.485 115.573 168.028C116.115 168.57 116.85 168.876 117.617 168.878H176.357C176.737 168.878 177.115 168.804 177.467 168.659C177.818 168.514 178.138 168.3 178.408 168.031C178.677 167.762 178.891 167.443 179.037 167.091C179.183 166.74 179.258 166.363 179.258 165.982C179.258 165.601 179.183 165.224 179.037 164.873C178.891 164.521 178.677 164.202 178.408 163.933C178.138 163.664 177.818 163.45 177.467 163.305C177.115 163.16 176.737 163.086 176.357 163.086H117.617Z" fill="#E6E6E6"/>
<path id="Vector_25" d="M117.617 178.086C116.85 178.088 116.115 178.393 115.573 178.936C115.031 179.479 114.727 180.215 114.727 180.982C114.727 181.749 115.031 182.485 115.573 183.028C116.115 183.57 116.85 183.876 117.617 183.878H176.357C176.737 183.878 177.115 183.804 177.467 183.659C177.818 183.514 178.138 183.3 178.408 183.031C178.677 182.762 178.891 182.443 179.037 182.091C179.183 181.74 179.258 181.363 179.258 180.982C179.258 180.601 179.183 180.224 179.037 179.873C178.891 179.521 178.677 179.202 178.408 178.933C178.138 178.664 177.818 178.45 177.467 178.305C177.115 178.16 176.737 178.086 176.357 178.086H117.617Z" fill="#E6E6E6"/>
</g>
<g id="indicator">
<path id="Vector_26" d="M396.058 94.7642C422.226 94.7642 443.44 73.5505 443.44 47.3821C443.44 21.2137 422.226 0 396.058 0C369.889 0 348.676 21.2137 348.676 47.3821C348.676 73.5505 369.889 94.7642 396.058 94.7642Z" fill="#6C63FF"/>
<path id="Vector_27" d="M396.058 124.408L381.242 98.747L366.427 73.086H396.058H425.688L410.873 98.747L396.058 124.408Z" fill="#6C63FF"/>
<path id="Vector_28" d="M396.44 64.0864C405.829 64.0864 413.44 56.4752 413.44 47.0864C413.44 37.6975 405.829 30.0864 396.44 30.0864C387.051 30.0864 379.44 37.6975 379.44 47.0864C379.44 56.4752 387.051 64.0864 396.44 64.0864Z" fill="white"/>
</g>
<path id="Vector_29" d="M888.643 137.186C882.948 137.186 877.381 138.875 872.645 142.039C867.909 145.203 864.219 149.7 862.039 154.962C859.86 160.224 859.289 166.014 860.4 171.6C861.511 177.186 864.254 182.317 868.281 186.344C872.309 190.371 877.44 193.114 883.025 194.225C888.611 195.336 894.401 194.766 899.663 192.586C904.925 190.407 909.422 186.716 912.587 181.98C915.751 177.245 917.44 171.677 917.44 165.982C917.44 162.2 916.695 158.456 915.248 154.962C913.801 151.468 911.679 148.294 909.005 145.62C906.331 142.946 903.157 140.825 899.663 139.378C896.17 137.93 892.425 137.186 888.643 137.186ZM888.643 190.524C883.789 190.524 879.044 189.085 875.009 186.388C870.973 183.691 867.827 179.858 865.969 175.374C864.112 170.889 863.626 165.955 864.573 161.194C865.52 156.433 867.857 152.06 871.29 148.628C874.722 145.196 879.095 142.858 883.855 141.911C888.616 140.964 893.551 141.45 898.035 143.308C902.52 145.166 906.353 148.311 909.049 152.347C911.746 156.383 913.186 161.128 913.186 165.982C913.186 169.205 912.551 172.396 911.317 175.374C910.084 178.351 908.276 181.057 905.997 183.336C903.718 185.615 901.013 187.423 898.035 188.656C895.058 189.889 891.866 190.524 888.643 190.524Z" fill="#E6E6E6"/>
<path id="Vector_30" d="M887.052 175.83C886.853 175.83 886.655 175.791 886.471 175.714C886.287 175.638 886.119 175.526 885.978 175.385L877.774 167.18C877.489 166.895 877.329 166.509 877.329 166.106C877.329 165.703 877.489 165.317 877.774 165.032C878.058 164.747 878.445 164.587 878.848 164.587C879.251 164.587 879.637 164.747 879.922 165.032L886.874 171.984L899.198 155.18C899.436 154.855 899.793 154.638 900.192 154.577C900.59 154.515 900.996 154.615 901.321 154.853C901.646 155.091 901.863 155.449 901.925 155.847C901.986 156.246 901.886 156.652 901.648 156.977L888.278 175.209C888.148 175.386 887.982 175.532 887.79 175.639C887.599 175.745 887.387 175.809 887.168 175.826C887.13 175.829 887.091 175.83 887.052 175.83Z" fill="#6C63FF"/>
<path id="Vector_31" d="M28.7963 137.186C23.1009 137.186 17.5335 138.875 12.7979 142.039C8.0624 145.203 4.37152 149.7 2.192 154.962C0.0124788 160.224 -0.557788 166.014 0.553328 171.6C1.66444 177.186 4.40702 182.317 8.43426 186.344C12.4615 190.371 17.5925 193.114 23.1785 194.225C28.7644 195.336 34.5544 194.766 39.8162 192.586C45.078 190.407 49.5754 186.716 52.7396 181.98C55.9038 177.245 57.5926 171.677 57.5926 165.982C57.5926 162.2 56.8478 158.456 55.4007 154.962C53.9535 151.468 51.8324 148.294 49.1584 145.62C46.4844 142.946 43.3099 140.825 39.8162 139.378C36.3224 137.93 32.5779 137.186 28.7963 137.186V137.186ZM28.7963 190.524C23.9423 190.524 19.1974 189.085 15.1615 186.388C11.1255 183.691 7.97991 179.858 6.12237 175.374C4.26484 170.889 3.77884 165.955 4.7258 161.194C5.67276 156.433 8.01015 152.06 11.4424 148.628C14.8747 145.196 19.2477 142.858 24.0084 141.911C28.7691 140.964 33.7037 141.45 38.1882 143.308C42.6726 145.166 46.5056 148.311 49.2023 152.347C51.899 156.383 53.3384 161.128 53.3384 165.982C53.3384 169.205 52.7036 172.396 51.4703 175.374C50.2369 178.351 48.4291 181.057 46.1502 183.336C43.8712 185.615 41.1657 187.423 38.1882 188.656C35.2106 189.889 32.0192 190.524 28.7963 190.524Z" fill="#E6E6E6"/>
<path id="Vector_32" d="M21.1112 175.598C20.8108 175.598 20.517 175.509 20.2672 175.342C20.0174 175.175 19.8227 174.938 19.7077 174.66C19.5928 174.382 19.5627 174.077 19.6213 173.782C19.6799 173.488 19.8245 173.217 20.037 173.004L36.2307 156.811C36.3718 156.67 36.5392 156.558 36.7236 156.482C36.9079 156.406 37.1054 156.366 37.3049 156.366C37.5044 156.366 37.702 156.406 37.8863 156.482C38.0706 156.558 38.2381 156.67 38.3792 156.811C38.5202 156.952 38.6322 157.12 38.7085 157.304C38.7849 157.488 38.8241 157.686 38.8241 157.885C38.8241 158.085 38.7849 158.283 38.7085 158.467C38.6322 158.651 38.5202 158.819 38.3792 158.96L22.1855 175.153C22.0446 175.294 21.8771 175.406 21.6928 175.483C21.5084 175.559 21.3108 175.598 21.1112 175.598V175.598Z" fill="#6C63FF"/>
<path id="Vector_33" d="M36.4811 175.598C36.2816 175.598 36.0839 175.559 35.8996 175.483C35.7152 175.406 35.5478 175.294 35.4069 175.153L19.2138 158.96C19.0727 158.819 18.9608 158.651 18.8844 158.467C18.8081 158.283 18.7688 158.085 18.7688 157.885C18.7688 157.686 18.8081 157.488 18.8844 157.304C18.9608 157.12 19.0727 156.952 19.2138 156.811C19.3548 156.67 19.5223 156.558 19.7066 156.482C19.8909 156.406 20.0885 156.366 20.288 156.366C20.4875 156.366 20.6851 156.406 20.8694 156.482C21.0537 156.558 21.2212 156.67 21.3622 156.811L37.5553 173.004C37.7678 173.217 37.9124 173.488 37.9711 173.782C38.0297 174.077 37.9996 174.382 37.8846 174.66C37.7696 174.938 37.5749 175.175 37.3251 175.342C37.0753 175.509 36.7816 175.598 36.4811 175.598V175.598Z" fill="#6C63FF"/>
<path id="Vector_34" d="M840.792 666.843H573.391V664.658H841.188L840.792 666.843Z" fill="#3F3D56"/>
<path id="Vector_35" d="M658.416 637.192H639.812V662.493H658.416V637.192Z" fill="#FFB8B8"/>
<path id="Vector_36" d="M752.924 637.192H734.32V662.493H752.924V637.192Z" fill="#FFB8B8"/>
<path id="Vector_37" d="M765.83 427.34C764.236 427.34 762.66 426.995 761.212 426.328C759.764 425.661 758.477 424.688 757.441 423.476C756.405 422.265 755.643 420.843 755.209 419.309C754.774 417.775 754.677 416.165 754.924 414.59L757.971 395.165L758.877 389.388H773.016L773.76 397.574L776.705 414.397C776.982 415.984 776.909 417.612 776.491 419.168C776.072 420.723 775.319 422.169 774.282 423.402C773.246 424.635 771.953 425.627 770.493 426.307C769.032 426.987 767.441 427.34 765.83 427.34V427.34Z" fill="#FFB8B8"/>
<path id="Vector_38" d="M627.417 425.107C625.823 425.107 624.247 424.762 622.799 424.095C621.351 423.428 620.064 422.455 619.028 421.244C617.991 420.032 617.23 418.61 616.795 417.076C616.361 415.542 616.264 413.932 616.511 412.357L619.558 392.932L620.464 387.155H634.603L635.347 395.341L638.291 412.165C638.569 413.752 638.496 415.38 638.078 416.935C637.659 418.491 636.905 419.936 635.869 421.169C634.833 422.403 633.539 423.394 632.079 424.075C630.619 424.755 629.028 425.107 627.417 425.107V425.107Z" fill="#FFB8B8"/>
<path id="Vector_39" d="M755.156 642.401L732.832 641.657L696.368 421.387L659.904 642.401L638.324 641.657L632.371 387.155H757.389L755.156 642.401Z" fill="#2F2E41"/>
<path id="Vector_40" d="M657.95 680.059C639.009 680.607 624.182 675.487 614.46 663.331C613.439 662.051 612.833 660.489 612.724 658.855C612.616 657.221 613.009 655.592 613.853 654.188V654.188C614.648 652.863 615.808 651.796 617.194 651.114C618.58 650.433 620.134 650.165 621.669 650.345L627.824 651.064L640.64 644.66C638.019 659.907 645.15 660.194 662.209 655.083L665.283 670.834C665.499 671.934 665.474 673.068 665.209 674.157C664.944 675.246 664.446 676.264 663.749 677.142C663.051 678.019 662.171 678.735 661.17 679.238C660.169 679.742 659.07 680.022 657.95 680.059Z" fill="#2F2E41"/>
<path id="Vector_41" d="M752.458 680.059C733.517 680.607 718.69 675.487 708.968 663.331C707.947 662.051 707.341 660.489 707.232 658.855C707.124 657.221 707.517 655.592 708.361 654.188V654.188C709.155 652.863 710.316 651.796 711.702 651.114C713.088 650.433 714.642 650.165 716.177 650.345L722.332 651.064L735.052 645.698C732.43 660.944 739.658 660.194 756.717 655.083L759.791 670.834C760.007 671.934 759.982 673.068 759.717 674.157C759.452 675.246 758.954 676.264 758.257 677.142C757.559 678.019 756.679 678.735 755.678 679.238C754.677 679.742 753.578 680.022 752.458 680.059V680.059Z" fill="#2F2E41"/>
<path id="Vector_42" d="M688.927 154.234C705.366 154.234 718.693 140.908 718.693 124.468C718.693 108.029 705.366 94.7018 688.927 94.7018C672.487 94.7018 659.16 108.029 659.16 124.468C659.16 140.908 672.487 154.234 688.927 154.234Z" fill="#FFB8B8"/>
<path id="Vector_43" d="M718.693 178.792L686.694 180.28L685.206 146.793L712.74 136.375L718.693 178.792Z" fill="#FFB8B8"/>
<path id="Vector_44" d="M764.831 397.574C721.194 389.317 671.48 386.359 638.324 397.574L648.742 178.792L683.717 168.373L686.322 164.281L715.716 159.444L729.855 163.908L738.785 177.303L777.481 198.884C758.433 272.567 752.791 339.513 764.831 397.574Z" fill="#3F3D56"/>
<path id="Vector_45" d="M785.667 396.085L753.668 392.365C760.338 359.868 757.61 317.598 759.249 275.16C760.289 248.244 765.871 223.749 767.807 193.675C779.943 196.839 786.226 208.108 786.298 221.388C786.641 284.375 792.59 343.392 785.667 396.085Z" fill="#3F3D56"/>
<path id="Vector_46" d="M646.51 393.109L615.255 390.876L633.859 285.206L640.157 197.272C639.177 184.448 646.031 176.997 656.184 176.559C678.361 202.821 680.932 239.013 674.043 279.997L646.51 393.109Z" fill="#3F3D56"/>
<path id="Vector_47" d="M698.581 146.354L694.742 135.426C692.588 129.295 688.808 123.864 683.805 119.716C678.803 115.568 672.767 112.857 666.343 111.875V111.875L642.286 111.323L648.965 100.589C652.186 95.4126 656.793 91.2418 662.263 88.5493C667.733 85.8567 673.848 84.7501 679.915 85.3549L703.958 87.7515C709.682 88.3221 714.948 91.1338 718.606 95.573C722.264 100.012 724.017 105.718 723.483 111.446L721.278 135.091C721.043 137.619 720.165 140.045 718.728 142.138C717.291 144.231 715.343 145.922 713.069 147.05C710.795 148.178 708.27 148.707 705.734 148.585C703.199 148.463 700.736 147.695 698.581 146.354V146.354Z" fill="#2F2E41"/>
</g>
<defs>
<clipPath id="clip0">
<rect width="917.44" height="680.099" fill="white"/>
</clipPath>
</defs>
</svg>
